<svg version="1.1" id="Layer_1" xmlns="http://www.w3.org/2000/svg" xmlns:xlink="http://www.w3.org/1999/xlink" x="0px" y="0px"
	 width="100%" viewBox="0 0 1835 130" enable-background="new 0 0 1835 130" xml:space="preserve">
<path fill="#FEFEFE" opacity="1.000000" stroke="none" 
	d="
M1760.000000,131.000000 
	C1173.407837,131.000000 587.315735,131.000000 1.111785,131.000000 
	C1.111785,87.746956 1.111785,44.493526 1.111785,1.120049 
	C612.666626,1.120049 1224.333374,1.120049 1835.994995,1.120049 
	C1835.994995,44.351028 1835.994995,87.675514 1835.992432,131.000000 
	C1810.826660,131.000000 1785.663330,131.000000 1760.000000,131.000000 
M955.029480,113.636871 
	C955.359070,113.784508 955.688660,113.932152 956.636902,114.552322 
	C967.819336,116.873390 971.359619,114.123192 971.603333,102.920242 
	C971.621460,102.088203 971.594116,101.255219 971.608521,100.423035 
	C971.943359,81.065979 969.505615,86.246452 985.503296,74.475266 
	C988.874817,71.994469 991.257446,73.137520 993.731018,75.348305 
	C1005.290771,85.680061 1016.708252,96.174301 1028.404419,106.348526 
	C1032.335449,109.767960 1036.739258,112.776810 1041.301025,115.295906 
	C1044.931885,117.300972 1048.606323,115.816200 1051.011841,112.579681 
	C1053.285278,109.520729 1054.571411,105.949539 1051.410645,102.624084 
	C1047.916382,98.947456 1044.309082,95.360199 1040.545898,91.960991 
	C1033.287354,85.404335 1025.863770,79.030563 1018.549255,72.535133 
	C1014.310974,68.771538 1010.152100,64.918526 1005.636475,60.813896 
	C1014.462830,54.694077 1022.807861,48.960407 1031.094482,43.143509 
	C1036.534546,39.324871 1041.970825,35.491577 1047.255005,31.463221 
	C1050.670410,28.859562 1051.379761,24.851862 1049.857544,21.284391 
	C1048.911499,19.067173 1045.882812,16.140015 1043.962280,16.262056 
	C1039.646973,16.536249 1034.879517,17.641340 1031.289429,19.951647 
	C1018.299500,28.310934 1005.786987,37.407784 992.958862,46.024693 
	C985.850342,50.799545 978.473145,55.174339 971.326538,58.834660 
	C971.159973,46.914398 970.993408,34.994137 970.879517,22.349825 
	C968.399414,15.953071 964.672668,14.365080 957.413452,16.524696 
	C956.857422,16.910761 956.301392,17.296825 956.004944,17.848337 
	C956.004944,17.848337 955.746338,17.669804 955.233032,17.827772 
	C955.036865,18.113216 954.840698,18.398663 954.882202,19.015675 
	C954.882202,19.015675 954.668152,18.668718 954.175659,18.906712 
	C954.056885,19.244425 953.938110,19.582140 953.913269,19.944551 
	C953.913269,19.944551 953.878052,19.854031 953.309570,20.387293 
	C952.895081,22.821609 952.128845,25.254700 952.120361,27.690432 
	C952.032288,52.967468 952.012756,78.245201 952.144287,103.521858 
	C952.158264,106.209259 953.254761,108.891022 953.758118,111.802010 
	C953.758118,111.802010 953.920776,111.984062 953.991882,112.546135 
	C954.291504,112.760010 954.591187,112.973885 954.908386,113.090958 
	C954.908386,113.090958 954.812561,113.113228 955.029480,113.636871 
M503.049133,105.750038 
	C503.517242,112.564011 505.925140,115.402534 511.166016,115.318520 
	C519.392395,115.186661 521.462585,113.372360 522.057617,105.035782 
	C522.058960,82.011383 522.060364,58.986984 522.383545,35.683392 
	C522.591980,35.489723 522.785950,35.282524 523.906799,35.122032 
	C534.585022,35.033962 545.263306,34.945892 556.688904,34.949780 
	C562.945007,33.271210 565.321899,30.587725 564.976990,25.592724 
	C564.601685,20.157242 562.003662,17.725206 555.031372,16.974020 
	C527.040100,17.029501 499.048767,17.084982 470.248657,17.029724 
	C463.634033,17.420622 460.644012,19.770046 460.724609,24.513237 
	C460.843750,31.522890 463.555389,34.540512 470.955566,35.091938 
	C481.305878,35.064449 491.656189,35.036957 502.384247,35.302811 
	C502.620117,35.518879 502.834412,35.754547 502.955841,36.943539 
	C503.017395,59.609837 503.078918,82.276138 503.049133,105.750038 
M872.194214,16.020052 
	C870.230164,16.358692 868.252808,16.634516 866.304016,17.045532 
	C842.205750,22.128160 827.991150,37.204361 825.670532,61.084846 
	C824.130127,76.936378 827.951233,91.495819 840.844788,101.844543 
	C862.109192,118.912102 885.911926,119.697472 910.443237,110.322144 
	C915.632507,108.338913 920.327393,104.298683 924.300537,100.269829 
	C925.906799,98.641045 925.792297,94.219925 924.897095,91.604797 
	C924.299866,89.860199 920.857361,87.931465 918.835327,88.080437 
	C914.950439,88.366638 910.790405,89.400383 907.417480,91.311653 
	C897.290527,97.050079 886.871582,100.174973 875.130920,98.025375 
	C866.936584,96.525070 858.484741,94.254898 853.375427,87.957245 
	C844.702515,77.267258 842.266724,64.510834 848.362671,51.470264 
	C854.622314,38.079540 866.467590,33.420834 880.355347,32.862473 
	C889.848694,32.480789 898.043701,36.802994 906.431519,40.474464 
	C910.018555,42.044563 913.902344,43.624935 917.721924,43.820446 
	C924.059448,44.144844 927.936829,37.571587 924.942993,31.972746 
	C923.669861,29.591866 921.543762,27.427452 919.324158,25.835611 
	C911.472656,20.204889 902.547485,17.223938 892.182983,15.855938 
	C885.794739,15.931755 879.406433,16.007572 872.194214,16.020052 
M585.127014,109.671234 
	C586.613403,115.833229 591.911865,115.112473 596.255981,115.427383 
	C600.066162,115.703568 602.157043,112.885307 603.024170,109.411026 
	C603.540955,107.340691 603.863586,105.169815 603.892029,103.039047 
	C603.993591,95.439674 603.931763,87.838112 603.931763,79.930916 
	C608.289062,79.930916 611.932678,79.854233 615.572205,79.943420 
	C638.382507,80.502350 633.153564,76.614914 648.971802,96.334839 
	C653.240295,101.656113 657.475769,107.025108 662.075623,112.052681 
	C665.977234,116.317047 672.738037,116.763138 676.485291,113.544067 
	C680.304443,110.263252 680.400818,105.339035 676.620605,100.100838 
	C675.359680,98.353561 673.816650,96.812317 672.446350,95.141037 
	C667.747803,89.410759 663.068848,83.664520 658.178467,77.674522 
	C660.346436,76.375565 661.757935,75.515892 663.182495,74.678482 
	C674.881287,67.801430 679.840759,57.527096 678.355591,44.149147 
	C676.427368,26.780331 665.174927,17.882288 648.540344,17.290226 
	C631.737000,16.692160 614.892395,16.955868 598.072449,17.239023 
	C588.083191,17.407190 584.794556,21.400503 585.076843,31.557030 
	C585.081421,31.722668 585.119019,31.887386 584.976318,32.970058 
	C584.944580,38.135727 584.868774,43.301563 584.888855,48.467030 
	C584.967163,68.620644 585.075989,88.774139 585.127014,109.671234 
M1146.916382,68.500771 
	C1146.999268,79.828606 1146.959839,91.159088 1147.206055,102.483376 
	C1147.385132,110.721245 1150.397217,113.758438 1158.664551,114.484230 
	C1161.810181,114.760384 1164.987061,114.803856 1168.147461,114.765945 
	C1186.957153,114.540337 1205.785400,114.690590 1224.568359,113.846634 
	C1237.130615,113.282204 1246.705200,105.034172 1249.086914,94.589813 
	C1252.120850,81.285004 1248.220215,73.102615 1235.029541,65.373283 
	C1236.995117,63.772549 1239.102905,62.402798 1240.782593,60.627880 
	C1247.967041,53.036366 1248.695801,44.030521 1245.535034,34.643105 
	C1242.182373,24.686338 1234.631714,18.600235 1224.448242,18.208538 
	C1202.168701,17.351582 1179.844482,17.436497 1157.540771,17.550789 
	C1150.464600,17.587049 1147.327881,21.672815 1147.200073,29.519171 
	C1146.994019,42.177807 1146.999512,54.839890 1146.916382,68.500771 
M1560.416382,15.924781 
	C1553.384399,17.812365 1546.172974,19.208637 1539.359619,21.695219 
	C1527.165527,26.145496 1520.973999,36.640865 1522.410522,49.056675 
	C1523.895752,61.893517 1530.010010,68.381149 1544.084595,70.294510 
	C1555.280884,71.816574 1566.635864,72.152534 1577.912354,73.109734 
	C1584.200806,73.643539 1590.512207,74.121712 1596.736694,75.108086 
	C1600.220215,75.660126 1603.473511,77.354828 1604.129517,81.489914 
	C1604.846069,86.006050 1603.506104,90.046036 1599.372437,92.030945 
	C1594.967773,94.146080 1590.225098,96.038948 1585.436157,96.785988 
	C1568.208130,99.473434 1551.680176,97.447388 1536.268433,88.494385 
	C1531.200562,85.550369 1526.779663,86.895546 1524.040894,91.116669 
	C1521.356201,95.254356 1522.274292,100.523277 1526.976074,103.709229 
	C1531.197144,106.569397 1535.719727,109.273987 1540.490479,110.983742 
	C1562.073486,118.718796 1583.665894,117.602806 1604.939209,109.675224 
	C1611.673706,107.165588 1617.877441,103.541840 1621.036377,96.386284 
	C1628.097046,80.393066 1620.124268,63.011921 1603.157715,59.392513 
	C1591.985229,57.009117 1580.467896,56.204975 1569.086060,54.853683 
	C1562.481812,54.069599 1555.788574,53.921997 1549.234131,52.872120 
	C1545.305298,52.242828 1542.136963,49.745113 1541.862061,45.247257 
	C1541.616943,41.240627 1544.484985,39.175728 1547.698975,38.060474 
	C1562.209595,33.025303 1576.947510,31.843376 1591.690186,36.875492 
	C1596.679810,38.578590 1601.273315,41.409206 1606.163452,43.446808 
	C1610.368896,45.199154 1614.411987,44.818958 1617.307617,40.838940 
	C1620.069092,37.043259 1619.330322,33.229790 1616.444824,29.896122 
	C1614.731812,27.917036 1612.821777,25.805281 1610.543701,24.667202 
	C1595.024902,16.914238 1578.712036,13.222905 1560.416382,15.924781 
M26.701420,96.414383 
	C26.701420,91.011955 26.701420,85.609528 26.701420,79.313560 
	C33.840385,79.313560 40.145473,79.430626 46.444561,79.286095 
	C55.853912,79.070190 62.874020,82.518494 67.987328,90.834801 
	C72.137497,97.584641 77.481293,103.608734 82.403618,109.869858 
	C83.616608,111.412758 85.105583,112.833725 86.717964,113.948875 
	C90.761810,116.745697 96.313339,116.264862 99.560928,113.057968 
	C102.888283,109.772316 103.018784,105.435204 99.483925,100.908302 
	C93.361786,93.068031 87.038704,85.384666 80.762978,77.589622 
	C83.053505,76.229240 85.099213,75.121490 87.035065,73.846893 
	C98.439331,66.338127 103.483574,54.514854 100.821770,41.654957 
	C98.126518,28.633406 89.269592,19.086142 75.340599,18.093140 
	C56.645763,16.760378 37.798233,17.087458 19.031830,17.468699 
	C11.102158,17.629791 8.015152,21.682364 7.111165,29.591316 
	C6.904030,31.403536 6.926995,33.247318 6.923364,35.076733 
	C6.880745,56.552006 6.827567,78.027344 6.851469,99.502579 
	C6.854781,102.478729 6.964145,105.512894 7.540771,108.417694 
	C8.607766,113.792770 11.747698,116.105774 17.005436,115.925041 
	C22.387005,115.740059 25.173172,113.407135 26.007185,107.821777 
	C26.520512,104.384056 26.488543,100.864914 26.701420,96.414383 
M197.915878,74.625008 
	C198.736786,74.491760 199.561310,74.377449 200.378021,74.222153 
	C205.353333,73.276199 207.812271,70.367790 207.931091,65.303978 
	C208.040298,60.649700 205.612213,57.701031 200.593903,56.777695 
	C198.651520,56.420307 196.615692,56.503643 194.622284,56.501133 
	C179.195541,56.481697 163.768768,56.490417 148.006744,56.490417 
	C148.006744,51.811783 148.047028,47.839287 147.998291,43.867886 
	C147.898788,35.759129 148.501755,35.105087 156.779785,35.093945 
	C174.612839,35.069942 192.446365,35.151260 210.278793,35.041267 
	C216.847900,35.000751 220.630402,31.506989 220.592667,26.073505 
	C220.552826,20.335897 217.224731,17.077394 210.446503,17.041716 
	C187.951553,16.923311 165.453735,16.866486 142.960526,17.110270 
	C132.806717,17.220320 128.650467,20.942030 128.518753,30.915180 
	C128.213028,54.062290 128.206421,77.226593 128.779922,100.366547 
	C129.071518,112.131104 132.187775,114.418442 143.873856,114.498840 
	C165.200974,114.645576 186.528488,114.739395 207.855988,114.818726 
	C209.844696,114.826126 211.853653,114.702225 213.819519,114.411560 
	C217.554382,113.859344 219.641312,111.656219 220.241180,107.863876 
	C221.359650,100.792900 217.950516,96.907959 209.900909,96.858116 
	C191.235168,96.742516 172.568237,96.819221 153.901779,96.817993 
	C152.145447,96.817879 150.389114,96.817978 148.688232,96.817978 
	C148.688232,89.079865 148.688232,82.029747 148.688232,74.697693 
	C165.048447,74.697693 181.034470,74.697693 197.915878,74.625008 
M1350.105713,77.353661 
	C1352.164673,75.588844 1354.091064,73.633820 1356.304932,72.091507 
	C1366.854492,64.742020 1371.612305,52.931831 1368.727051,40.882038 
	C1365.831909,28.791664 1355.794922,18.765518 1343.483521,18.017641 
	C1326.242065,16.970280 1308.919312,17.132113 1291.630005,17.043823 
	C1278.788452,16.978245 1275.001587,20.900511 1274.940063,33.737946 
	C1274.870728,48.221352 1274.922852,62.705349 1274.923828,77.189087 
	C1274.924561,86.844879 1274.807373,96.502731 1274.972290,106.155746 
	C1275.087524,112.894249 1278.619507,116.173943 1284.885254,115.885735 
	C1290.683594,115.619026 1293.826416,112.521248 1293.970093,106.246895 
	C1294.166992,97.642273 1294.019287,89.029762 1294.019287,79.516052 
	C1302.082886,79.516052 1309.687744,79.477173 1317.291992,79.526855 
	C1325.078369,79.577721 1330.432983,83.326630 1334.866333,89.733681 
	C1340.317505,97.611542 1346.599487,104.931419 1352.760620,112.292992 
	C1355.335327,115.369194 1358.834351,116.958687 1363.030029,115.487717 
	C1370.379150,112.911186 1371.668457,106.565636 1366.400391,99.535751 
	C1361.042603,92.386208 1355.789673,85.158096 1350.105713,77.353661 
M246.793060,88.252853 
	C244.442795,92.824821 241.904221,97.311790 239.792038,101.991234 
	C237.392303,107.307777 238.837570,112.337311 243.027603,114.690758 
	C247.312347,117.097397 252.586914,116.061134 255.797134,111.523926 
	C258.652161,107.488731 261.029572,103.082848 263.303711,98.678391 
	C265.680176,94.075661 268.981293,91.858932 274.369476,91.910339 
	C285.840515,92.019768 297.340027,92.024422 308.783752,91.337227 
	C321.381409,90.580750 328.173462,94.635704 333.310913,106.281029 
	C334.752411,109.548576 337.647034,112.497223 340.548065,114.709793 
	C343.557678,117.005196 347.259979,116.205742 350.269104,113.894554 
	C353.328674,111.544617 354.445557,108.291153 353.397583,104.579002 
	C352.726471,102.201836 351.767242,99.859848 350.614563,97.672089 
	C341.336151,80.062187 332.077911,62.440311 322.605469,44.934662 
	C318.353485,37.076790 314.185120,29.072584 308.976532,21.858442 
	C302.084808,12.313130 289.875946,12.696017 282.776978,22.130138 
	C280.401917,25.286453 278.485321,28.818869 276.606750,32.312481 
	C266.716064,50.706573 256.904572,69.143265 246.793060,88.252853 
M1500.711426,96.757545 
	C1488.070190,73.217422 1475.456421,49.662537 1462.770020,26.146833 
	C1459.281250,19.679832 1454.392944,14.828101 1446.472290,14.992150 
	C1438.334839,15.160689 1433.643433,20.425037 1430.121582,27.079189 
	C1427.406494,32.208923 1424.655029,37.319389 1421.926147,42.441837 
	C1411.789185,61.470509 1401.625244,80.484940 1391.535400,99.538643 
	C1387.953369,106.302956 1388.780396,111.705261 1393.596191,114.498489 
	C1398.889160,117.568512 1404.643066,115.551018 1408.566284,108.949959 
	C1410.680908,105.392090 1412.520630,101.648483 1414.210205,97.866241 
	C1416.129395,93.570107 1418.985229,91.756157 1423.908569,91.810989 
	C1436.551514,91.951775 1449.201050,91.525192 1461.847534,91.304527 
	C1470.834595,91.147728 1478.191284,94.002045 1482.448120,102.491776 
	C1483.779053,105.146248 1484.655273,108.056610 1486.190430,110.574890 
	C1489.037231,115.244240 1495.390015,117.029755 1499.610352,114.663048 
	C1504.631104,111.847443 1505.821167,107.322189 1503.065918,101.421486 
	C1502.435425,100.070984 1501.726440,98.757072 1500.711426,96.757545 
M729.688232,92.650932 
	C730.329346,92.478638 730.969788,92.158234 731.611572,92.155716 
	C748.088013,92.091011 764.568848,91.865578 781.036194,92.235947 
	C783.443909,92.290100 786.456116,94.729477 788.019836,96.905235 
	C791.203125,101.334427 793.483459,106.401062 796.335510,111.083382 
	C798.755981,115.057068 805.160339,116.634819 809.617371,114.608414 
	C813.409485,112.884331 815.095520,108.427155 813.635559,103.470978 
	C813.077881,101.577950 812.231934,99.739189 811.299805,97.991753 
	C798.640442,74.259674 786.141479,50.437759 773.090149,26.922657 
	C770.422241,22.115767 766.583557,17.224636 760.290649,16.216961 
	C750.468689,14.644181 745.825745,16.651348 740.901123,25.537230 
	C731.402283,42.676678 722.227051,59.996315 712.997070,77.283592 
	C708.773682,85.193756 704.564087,93.120491 700.679016,101.198807 
	C698.088135,106.586044 699.508972,112.308014 703.375854,114.480423 
	C708.467957,117.341179 713.860596,115.748260 717.443848,110.164101 
	C719.055969,107.651863 720.229614,104.852242 721.901245,102.385742 
	C724.096313,99.146843 726.586548,96.108047 729.688232,92.650932 
M1646.003662,106.349403 
	C1647.334717,112.779518 1649.460205,114.682350 1656.743774,114.787987 
	C1670.403198,114.986061 1684.066772,114.933502 1697.728516,114.907341 
	C1700.545654,114.901947 1703.414551,114.829819 1706.167480,114.305382 
	C1710.674072,113.446877 1712.990723,110.539833 1712.967163,105.846169 
	C1712.940918,100.622261 1710.319824,97.510986 1704.771606,97.122589 
	C1699.873901,96.779739 1694.933472,97.050827 1690.215576,97.050827 
	C1690.215576,75.892014 1690.215576,55.658211 1690.215576,35.042885 
	C1694.734009,35.042885 1698.885254,35.213966 1703.017334,35.004383 
	C1709.900635,34.655251 1712.961304,31.703016 1712.955444,25.807793 
	C1712.949585,19.935726 1709.752563,17.062124 1702.690552,17.023199 
	C1687.195557,16.937796 1671.699585,16.943745 1656.204468,17.020123 
	C1649.499390,17.053173 1646.065186,20.167074 1646.001587,25.885984 
	C1645.938965,31.514147 1649.509155,34.849876 1656.073608,35.060638 
	C1660.335449,35.197475 1664.605347,35.086407 1668.738037,35.086407 
	C1668.738037,56.068092 1668.738037,76.308746 1668.738037,96.921219 
	C1663.940430,96.921219 1659.452637,96.696068 1654.996460,96.976250 
	C1648.960938,97.355728 1647.015869,99.394928 1646.003662,106.349403 
M1809.647583,96.810432 
	C1795.658447,96.842186 1781.669434,96.875633 1767.680298,96.905090 
	C1759.203491,96.922943 1758.039429,95.840256 1758.020996,87.564857 
	C1758.006104,80.903679 1758.163574,74.242218 1758.165039,67.580872 
	C1758.168091,54.089088 1758.266113,40.594765 1758.036621,27.106396 
	C1757.883423,18.104227 1752.741089,13.875772 1745.131592,15.936815 
	C1739.464722,17.471695 1738.394409,22.125221 1738.380981,26.862850 
	C1738.311157,51.507790 1738.252930,76.157326 1738.675537,100.796951 
	C1738.856079,111.324844 1742.638794,114.336823 1753.401001,114.514893 
	C1761.057861,114.641602 1768.715332,114.775414 1776.372925,114.803642 
	C1790.365234,114.855209 1804.358765,114.931587 1818.349731,114.792976 
	C1824.712646,114.729942 1827.882446,111.504837 1827.927002,105.769569 
	C1827.967773,100.539658 1824.631226,97.307953 1818.596680,96.916077 
	C1815.941528,96.743668 1813.269287,96.837494 1809.647583,96.810432 
M375.083496,21.962202 
	C374.819305,25.104013 374.340179,28.244898 374.326599,31.387793 
	C374.251892,48.701973 374.234650,66.016922 374.318939,83.331009 
	C374.352142,90.142776 374.456421,96.971664 374.976959,103.758347 
	C375.432678,109.699936 378.506378,113.838348 383.472900,113.929390 
	C407.918121,114.377487 432.371674,114.479263 456.821930,114.445114 
	C461.674530,114.438339 463.661407,110.671196 463.865936,106.272720 
	C464.072723,101.825043 462.142731,98.434547 457.532043,97.385361 
	C455.291443,96.875511 452.910767,96.839592 450.592896,96.833519 
	C434.113586,96.790344 417.634064,96.837585 401.154724,96.795532 
	C395.392120,96.780830 394.072784,95.436562 394.068695,89.805229 
	C394.064453,83.979607 394.193420,78.153748 394.172180,72.328323 
	C394.115173,56.681648 394.124847,41.033123 393.850281,25.389856 
	C393.770355,20.834055 391.960205,16.967398 386.781219,15.859562 
	C381.318024,14.690929 378.234131,16.104406 375.083496,21.962202 
z"/>
<path fill="#080808" opacity="1.000000" stroke="none" 
	d="
M1146.916016,68.000641 
	C1146.999512,54.839890 1146.994019,42.177807 1147.200073,29.519171 
	C1147.327881,21.672815 1150.464600,17.587049 1157.540771,17.550789 
	C1179.844482,17.436497 1202.168701,17.351582 1224.448242,18.208538 
	C1234.631714,18.600235 1242.182373,24.686338 1245.535034,34.643105 
	C1248.695801,44.030521 1247.967041,53.036366 1240.782593,60.627880 
	C1239.102905,62.402798 1236.995117,63.772549 1235.029541,65.373283 
	C1248.220215,73.102615 1252.120850,81.285004 1249.086914,94.589813 
	C1246.705200,105.034172 1237.130615,113.282204 1224.568359,113.846634 
	C1205.785400,114.690590 1186.957153,114.540337 1168.147461,114.765945 
	C1164.987061,114.803856 1161.810181,114.760384 1158.664551,114.484230 
	C1150.397217,113.758438 1147.385132,110.721245 1147.206055,102.483376 
	C1146.959839,91.159088 1146.999268,79.828606 1146.916016,68.000641 
M1218.258667,74.792137 
	C1201.032959,74.792137 1183.807129,74.792137 1166.765625,74.792137 
	C1166.765625,82.173607 1166.765625,89.464043 1166.765625,96.913971 
	C1181.063965,96.913971 1194.683716,96.970398 1208.302368,96.878708 
	C1212.255859,96.852089 1216.264282,96.738205 1220.145996,96.072624 
	C1227.430664,94.823578 1230.369019,91.051804 1229.989136,84.250710 
	C1229.684814,78.801659 1226.111694,75.719749 1218.258667,74.792137 
M1174.544189,56.147293 
	C1188.172974,56.093323 1201.802002,56.079185 1215.430176,55.963364 
	C1220.079468,55.923855 1224.445679,54.864166 1226.809082,50.317375 
	C1230.598877,43.026386 1225.638184,35.460770 1216.357056,35.224289 
	C1201.572998,34.847603 1186.772461,35.054211 1171.979614,35.138702 
	C1168.885742,35.156376 1166.389893,36.610085 1166.278198,40.089504 
	C1166.109375,45.346066 1166.234009,50.612049 1166.234009,56.147297 
	C1168.952271,56.147297 1171.256592,56.147297 1174.544189,56.147293 
z"/>
<path fill="#0A0A0A" opacity="1.000000" stroke="none" 
	d="
M1560.859619,15.912283 
	C1578.712036,13.222905 1595.024902,16.914238 1610.543701,24.667202 
	C1612.821777,25.805281 1614.731812,27.917036 1616.444824,29.896122 
	C1619.330322,33.229790 1620.069092,37.043259 1617.307617,40.838940 
	C1614.411987,44.818958 1610.368896,45.199154 1606.163452,43.446808 
	C1601.273315,41.409206 1596.679810,38.578590 1591.690186,36.875492 
	C1576.947510,31.843376 1562.209595,33.025303 1547.698975,38.060474 
	C1544.484985,39.175728 1541.616943,41.240627 1541.862061,45.247257 
	C1542.136963,49.745113 1545.305298,52.242828 1549.234131,52.872120 
	C1555.788574,53.921997 1562.481812,54.069599 1569.086060,54.853683 
	C1580.467896,56.204975 1591.985229,57.009117 1603.157715,59.392513 
	C1620.124268,63.011921 1628.097046,80.393066 1621.036377,96.386284 
	C1617.877441,103.541840 1611.673706,107.165588 1604.939209,109.675224 
	C1583.665894,117.602806 1562.073486,118.718796 1540.490479,110.983742 
	C1535.719727,109.273987 1531.197144,106.569397 1526.976074,103.709229 
	C1522.274292,100.523277 1521.356201,95.254356 1524.040894,91.116669 
	C1526.779663,86.895546 1531.200562,85.550369 1536.268433,88.494385 
	C1551.680176,97.447388 1568.208130,99.473434 1585.436157,96.785988 
	C1590.225098,96.038948 1594.967773,94.146080 1599.372437,92.030945 
	C1603.506104,90.046036 1604.846069,86.006050 1604.129517,81.489914 
	C1603.473511,77.354828 1600.220215,75.660126 1596.736694,75.108086 
	C1590.512207,74.121712 1584.200806,73.643539 1577.912354,73.109734 
	C1566.635864,72.152534 1555.280884,71.816574 1544.084595,70.294510 
	C1530.010010,68.381149 1523.895752,61.893517 1522.410522,49.056675 
	C1520.973999,36.640865 1527.165527,26.145496 1539.359619,21.695219 
	C1546.172974,19.208637 1553.384399,17.812365 1560.859619,15.912283 
z"/>
<path fill="#080808" opacity="1.000000" stroke="none" 
	d="
M26.701416,96.898354 
	C26.488543,100.864914 26.520512,104.384056 26.007185,107.821777 
	C25.173172,113.407135 22.387005,115.740059 17.005436,115.925041 
	C11.747698,116.105774 8.607766,113.792770 7.540771,108.417694 
	C6.964145,105.512894 6.854781,102.478729 6.851469,99.502579 
	C6.827567,78.027344 6.880745,56.552006 6.923364,35.076733 
	C6.926995,33.247318 6.904030,31.403536 7.111165,29.591316 
	C8.015152,21.682364 11.102158,17.629791 19.031830,17.468699 
	C37.798233,17.087458 56.645763,16.760378 75.340599,18.093140 
	C89.269592,19.086142 98.126518,28.633406 100.821770,41.654957 
	C103.483574,54.514854 98.439331,66.338127 87.035065,73.846893 
	C85.099213,75.121490 83.053505,76.229240 80.762978,77.589622 
	C87.038704,85.384666 93.361786,93.068031 99.483925,100.908302 
	C103.018784,105.435204 102.888283,109.772316 99.560928,113.057968 
	C96.313339,116.264862 90.761810,116.745697 86.717964,113.948875 
	C85.105583,112.833725 83.616608,111.412758 82.403618,109.869858 
	C77.481293,103.608734 72.137497,97.584641 67.987328,90.834801 
	C62.874020,82.518494 55.853912,79.070190 46.444561,79.286095 
	C40.145473,79.430626 33.840385,79.313560 26.701420,79.313560 
	C26.701420,85.609528 26.701420,91.011955 26.701416,96.898354 
M54.496277,61.778107 
	C59.321262,61.747929 64.158157,61.922150 68.968567,61.641811 
	C77.095642,61.168201 81.891975,56.306957 81.961609,48.867920 
	C82.037483,40.761055 77.863831,35.484669 70.029541,35.236500 
	C57.395721,34.836296 44.738419,34.982388 32.097534,35.229828 
	C30.383423,35.263382 27.305208,37.137264 27.239647,38.293976 
	C26.802668,46.003788 27.012962,53.750294 27.012962,61.778622 
	C35.903835,61.778622 44.700527,61.778622 54.496277,61.778107 
z"/>
<path fill="#090909" opacity="1.000000" stroke="none" 
	d="
M197.468185,74.661346 
	C181.034470,74.697693 165.048447,74.697693 148.688232,74.697693 
	C148.688232,82.029747 148.688232,89.079865 148.688232,96.817978 
	C150.389114,96.817978 152.145447,96.817879 153.901779,96.817993 
	C172.568237,96.819221 191.235168,96.742516 209.900909,96.858116 
	C217.950516,96.907959 221.359650,100.792900 220.241180,107.863876 
	C219.641312,111.656219 217.554382,113.859344 213.819519,114.411560 
	C211.853653,114.702225 209.844696,114.826126 207.855988,114.818726 
	C186.528488,114.739395 165.200974,114.645576 143.873856,114.498840 
	C132.187775,114.418442 129.071518,112.131104 128.779922,100.366547 
	C128.206421,77.226593 128.213028,54.062290 128.518753,30.915180 
	C128.650467,20.942030 132.806717,17.220320 142.960526,17.110270 
	C165.453735,16.866486 187.951553,16.923311 210.446503,17.041716 
	C217.224731,17.077394 220.552826,20.335897 220.592667,26.073505 
	C220.630402,31.506989 216.847900,35.000751 210.278793,35.041267 
	C192.446365,35.151260 174.612839,35.069942 156.779785,35.093945 
	C148.501755,35.105087 147.898788,35.759129 147.998291,43.867886 
	C148.047028,47.839287 148.006744,51.811783 148.006744,56.490417 
	C163.768768,56.490417 179.195541,56.481697 194.622284,56.501133 
	C196.615692,56.503643 198.651520,56.420307 200.593903,56.777695 
	C205.612213,57.701031 208.040298,60.649700 207.931091,65.303978 
	C207.812271,70.367790 205.353333,73.276199 200.378021,74.222153 
	C199.561310,74.377449 198.736786,74.491760 197.468185,74.661346 
z"/>
<path fill="#060606" opacity="1.000000" stroke="none" 
	d="
M1350.298340,77.659027 
	C1355.789673,85.158096 1361.042603,92.386208 1366.400391,99.535751 
	C1371.668457,106.565636 1370.379150,112.911186 1363.030029,115.487717 
	C1358.834351,116.958687 1355.335327,115.369194 1352.760620,112.292992 
	C1346.599487,104.931419 1340.317505,97.611542 1334.866333,89.733681 
	C1330.432983,83.326630 1325.078369,79.577721 1317.291992,79.526855 
	C1309.687744,79.477173 1302.082886,79.516052 1294.019287,79.516052 
	C1294.019287,89.029762 1294.166992,97.642273 1293.970093,106.246895 
	C1293.826416,112.521248 1290.683594,115.619026 1284.885254,115.885735 
	C1278.619507,116.173943 1275.087524,112.894249 1274.972290,106.155746 
	C1274.807373,96.502731 1274.924561,86.844879 1274.923828,77.189087 
	C1274.922852,62.705349 1274.870728,48.221352 1274.940063,33.737946 
	C1275.001587,20.900511 1278.788452,16.978245 1291.630005,17.043823 
	C1308.919312,17.132113 1326.242065,16.970280 1343.483521,18.017641 
	C1355.794922,18.765518 1365.831909,28.791664 1368.727051,40.882038 
	C1371.612305,52.931831 1366.854492,64.742020 1356.304932,72.091507 
	C1354.091064,73.633820 1352.164673,75.588844 1350.298340,77.659027 
M1302.557983,61.965969 
	C1313.718018,61.934601 1324.884766,62.133911 1336.035889,61.800690 
	C1345.375244,61.521610 1349.215088,57.463352 1349.383423,48.752594 
	C1349.547852,40.249104 1345.542847,35.449429 1337.015625,35.188496 
	C1325.366821,34.832043 1313.698242,35.019714 1302.039795,35.139900 
	C1297.711426,35.184525 1294.507202,37.370800 1294.282593,41.914108 
	C1293.957886,48.487701 1294.199463,55.089275 1294.199463,61.965832 
	C1296.955322,61.965832 1299.267334,61.965832 1302.557983,61.965969 
z"/>
<path fill="#25B5A6" opacity="1.000000" stroke="none" 
	d="
M585.141113,32.052536 
	C585.119019,31.887386 585.081421,31.722668 585.076843,31.557030 
	C584.794556,21.400503 588.083191,17.407190 598.072449,17.239023 
	C614.892395,16.955868 631.737000,16.692160 648.540344,17.290226 
	C665.174927,17.882288 676.427368,26.780331 678.355591,44.149147 
	C679.840759,57.527096 674.881287,67.801430 663.182495,74.678482 
	C661.757935,75.515892 660.346436,76.375565 658.178467,77.674522 
	C663.068848,83.664520 667.747803,89.410759 672.446350,95.141037 
	C673.816650,96.812317 675.359680,98.353561 676.620605,100.100838 
	C680.400818,105.339035 680.304443,110.263252 676.485291,113.544067 
	C672.738037,116.763138 665.977234,116.317047 662.075623,112.052681 
	C657.475769,107.025108 653.240295,101.656113 648.971802,96.334839 
	C633.153564,76.614914 638.382507,80.502350 615.572205,79.943420 
	C611.932678,79.854233 608.289062,79.930916 603.931763,79.930916 
	C603.931763,87.838112 603.993591,95.439674 603.892029,103.039047 
	C603.863586,105.169815 603.540955,107.340691 603.024170,109.411026 
	C602.157043,112.885307 600.066162,115.703568 596.255981,115.427383 
	C591.911865,115.112473 586.613403,115.833229 585.415649,108.988777 
	C585.802551,107.656708 585.986389,107.007149 585.986755,106.357475 
	C586.001831,82.831512 586.012695,59.305511 585.963318,35.779648 
	C585.960693,34.536709 585.427429,33.294884 585.141113,32.052536 
M604.156555,61.441887 
	C604.448242,61.655472 604.739868,61.869061 605.630981,62.653290 
	C619.091187,62.757832 632.551331,62.879475 646.011719,62.918301 
	C646.712646,62.920322 647.415649,62.216801 648.594177,61.320805 
	C656.209717,59.282318 658.882751,56.300793 659.003784,49.709621 
	C659.163391,41.014606 657.164978,37.893063 649.586853,34.798489 
	C648.996643,34.544048 648.407288,34.069836 647.816040,34.067410 
	C634.189758,34.011471 620.563232,34.000656 606.936890,34.039268 
	C606.676880,34.040001 606.418884,34.737316 605.855408,35.601856 
	C605.239563,36.065762 604.623718,36.529667 603.401855,37.572895 
	C603.565430,45.368671 603.728943,53.164444 604.156555,61.441887 
z"/>
<path fill="#060606" opacity="1.000000" stroke="none" 
	d="
M246.929321,87.909012 
	C256.904572,69.143265 266.716064,50.706573 276.606750,32.312481 
	C278.485321,28.818869 280.401917,25.286453 282.776978,22.130138 
	C289.875946,12.696017 302.084808,12.313130 308.976532,21.858442 
	C314.185120,29.072584 318.353485,37.076790 322.605469,44.934662 
	C332.077911,62.440311 341.336151,80.062187 350.614563,97.672089 
	C351.767242,99.859848 352.726471,102.201836 353.397583,104.579002 
	C354.445557,108.291153 353.328674,111.544617 350.269104,113.894554 
	C347.259979,116.205742 343.557678,117.005196 340.548065,114.709793 
	C337.647034,112.497223 334.752411,109.548576 333.310913,106.281029 
	C328.173462,94.635704 321.381409,90.580750 308.783752,91.337227 
	C297.340027,92.024422 285.840515,92.019768 274.369476,91.910339 
	C268.981293,91.858932 265.680176,94.075661 263.303711,98.678391 
	C261.029572,103.082848 258.652161,107.488731 255.797134,111.523926 
	C252.586914,116.061134 247.312347,117.097397 243.027603,114.690758 
	C238.837570,112.337311 237.392303,107.307777 239.792038,101.991234 
	C241.904221,97.311790 244.442795,92.824821 246.929321,87.909012 
M302.485229,73.844521 
	C306.685242,73.844521 310.885254,73.844521 316.123260,73.844521 
	C309.430206,61.320755 303.309021,49.867046 296.851318,37.783627 
	C289.504761,50.187500 282.649902,61.761143 275.493164,73.844513 
	C284.836884,73.844513 293.163025,73.844513 302.485229,73.844521 
z"/>
<path fill="#060606" opacity="1.000000" stroke="none" 
	d="
M1500.882568,97.091949 
	C1501.726440,98.757072 1502.435425,100.070984 1503.065918,101.421486 
	C1505.821167,107.322189 1504.631104,111.847443 1499.610352,114.663048 
	C1495.390015,117.029755 1489.037231,115.244240 1486.190430,110.574890 
	C1484.655273,108.056610 1483.779053,105.146248 1482.448120,102.491776 
	C1478.191284,94.002045 1470.834595,91.147728 1461.847534,91.304527 
	C1449.201050,91.525192 1436.551514,91.951775 1423.908569,91.810989 
	C1418.985229,91.756157 1416.129395,93.570107 1414.210205,97.866241 
	C1412.520630,101.648483 1410.680908,105.392090 1408.566284,108.949959 
	C1404.643066,115.551018 1398.889160,117.568512 1393.596191,114.498489 
	C1388.780396,111.705261 1387.953369,106.302956 1391.535400,99.538643 
	C1401.625244,80.484940 1411.789185,61.470509 1421.926147,42.441837 
	C1424.655029,37.319389 1427.406494,32.208923 1430.121582,27.079189 
	C1433.643433,20.425037 1438.334839,15.160689 1446.472290,14.992150 
	C1454.392944,14.828101 1459.281250,19.679832 1462.770020,26.146833 
	C1475.456421,49.662537 1488.070190,73.217422 1500.882568,97.091949 
M1442.939941,44.400951 
	C1437.727905,53.892395 1432.515747,63.383835 1427.098633,73.248718 
	C1440.585693,73.248718 1453.320190,73.248718 1466.759766,73.248718 
	C1459.978516,61.001808 1453.560547,49.410828 1446.840210,37.273937 
	C1445.326782,39.982624 1444.282227,41.852074 1442.939941,44.400951 
z"/>
<path fill="#24B4A5" opacity="1.000000" stroke="none" 
	d="
M729.319092,92.817078 
	C726.586548,96.108047 724.096313,99.146843 721.901245,102.385742 
	C720.229614,104.852242 719.055969,107.651863 717.443848,110.164101 
	C713.860596,115.748260 708.467957,117.341179 703.375854,114.480423 
	C699.508972,112.308014 698.088135,106.586044 700.679016,101.198807 
	C704.564087,93.120491 708.773682,85.193756 712.997070,77.283592 
	C722.227051,59.996315 731.402283,42.676678 740.901123,25.537230 
	C745.825745,16.651348 750.468689,14.644181 760.290649,16.216961 
	C766.583557,17.224636 770.422241,22.115767 773.090149,26.922657 
	C786.141479,50.437759 798.640442,74.259674 811.299805,97.991753 
	C812.231934,99.739189 813.077881,101.577950 813.635559,103.470978 
	C815.095520,108.427155 813.409485,112.884331 809.617371,114.608414 
	C805.160339,116.634819 798.755981,115.057068 796.335510,111.083382 
	C793.483459,106.401062 791.203125,101.334427 788.019836,96.905235 
	C786.456116,94.729477 783.443909,92.290100 781.036194,92.235947 
	C764.568848,91.865578 748.088013,92.091011 731.611572,92.155716 
	C730.969788,92.158234 730.329346,92.478638 729.319092,92.817078 
M775.537903,73.584152 
	C770.461609,63.429455 765.410461,53.262066 760.288391,43.130558 
	C759.235535,41.048038 757.917419,39.099609 756.410828,36.567120 
	C750.075684,48.654224 744.075806,60.065212 738.145386,71.512161 
	C737.809998,72.159576 738.044617,73.102272 738.552246,74.553543 
	C750.152100,74.681847 761.751892,74.823624 773.352051,74.896736 
	C773.904236,74.900215 774.460205,74.295891 775.537903,73.584152 
z"/>
<path fill="#26B5A6" opacity="1.000000" stroke="none" 
	d="
M953.920776,111.984055 
	C953.920776,111.984062 953.758118,111.802010 953.842407,111.175545 
	C953.910461,80.317398 953.894226,50.085712 953.878052,19.854031 
	C953.878052,19.854031 953.913269,19.944551 954.129639,19.823503 
	C954.453369,19.357874 954.560730,19.013294 954.668152,18.668716 
	C954.668152,18.668718 954.882202,19.015675 955.061035,18.837969 
	C955.408752,18.330111 955.577515,17.999956 955.746338,17.669804 
	C955.746338,17.669804 956.004944,17.848337 956.208374,17.844940 
	C956.949890,17.518635 957.487915,17.195723 958.025940,16.872810 
	C964.672668,14.365080 968.399414,15.953071 970.587341,23.022091 
	C970.195740,35.345818 970.085388,46.997246 970.048584,58.648930 
	C970.047485,59.007862 970.810303,59.369209 971.217041,59.729439 
	C978.473145,55.174339 985.850342,50.799545 992.958862,46.024693 
	C1005.786987,37.407784 1018.299500,28.310934 1031.289429,19.951647 
	C1034.879517,17.641340 1039.646973,16.536249 1043.962280,16.262056 
	C1045.882812,16.140015 1048.911499,19.067173 1049.857544,21.284391 
	C1051.379761,24.851862 1050.670410,28.859562 1047.255005,31.463221 
	C1041.970825,35.491577 1036.534546,39.324871 1031.094482,43.143509 
	C1022.807861,48.960407 1014.462830,54.694077 1005.636475,60.813896 
	C1010.152100,64.918526 1014.310974,68.771538 1018.549255,72.535133 
	C1025.863770,79.030563 1033.287354,85.404335 1040.545898,91.960991 
	C1044.309082,95.360199 1047.916382,98.947456 1051.410645,102.624084 
	C1054.571411,105.949539 1053.285278,109.520729 1051.011841,112.579681 
	C1048.606323,115.816200 1044.931885,117.300972 1041.301025,115.295906 
	C1036.739258,112.776810 1032.335449,109.767960 1028.404419,106.348526 
	C1016.708252,96.174301 1005.290771,85.680061 993.731018,75.348305 
	C991.257446,73.137520 988.874817,71.994469 985.503296,74.475266 
	C969.505615,86.246452 971.943359,81.065979 971.608521,100.423035 
	C971.594116,101.255219 971.621460,102.088203 971.603333,102.920242 
	C971.359619,114.123192 967.819336,116.873390 956.198486,114.076332 
	C955.444275,113.437965 955.128418,113.275581 954.812561,113.113220 
	C954.812561,113.113228 954.908386,113.090958 954.827393,112.875816 
	C954.471191,112.435135 954.195984,112.209587 953.920776,111.984055 
z"/>
<path fill="#25B5A6" opacity="1.000000" stroke="none" 
	d="
M892.985413,16.083881 
	C902.547485,17.223938 911.472656,20.204889 919.324158,25.835611 
	C921.543762,27.427452 923.669861,29.591866 924.942993,31.972746 
	C927.936829,37.571587 924.059448,44.144844 917.721924,43.820446 
	C913.902344,43.624935 910.018555,42.044563 906.431519,40.474464 
	C898.043701,36.802994 889.848694,32.480789 880.355347,32.862473 
	C866.467590,33.420834 854.622314,38.079540 848.362671,51.470264 
	C842.266724,64.510834 844.702515,77.267258 853.375427,87.957245 
	C858.484741,94.254898 866.936584,96.525070 875.130920,98.025375 
	C886.871582,100.174973 897.290527,97.050079 907.417480,91.311653 
	C910.790405,89.400383 914.950439,88.366638 918.835327,88.080437 
	C920.857361,87.931465 924.299866,89.860199 924.897095,91.604797 
	C925.792297,94.219925 925.906799,98.641045 924.300537,100.269829 
	C920.327393,104.298683 915.632507,108.338913 910.443237,110.322144 
	C885.911926,119.697472 862.109192,118.912102 840.844788,101.844543 
	C827.951233,91.495819 824.130127,76.936378 825.670532,61.084846 
	C827.991150,37.204361 842.205750,22.128160 866.304016,17.045532 
	C868.252808,16.634516 870.230164,16.358692 872.914368,16.327499 
	C880.084839,16.451258 886.535095,16.267570 892.985413,16.083881 
z"/>
<path fill="#090909" opacity="1.000000" stroke="none" 
	d="
M1646.002075,105.941818 
	C1647.015869,99.394928 1648.960938,97.355728 1654.996460,96.976250 
	C1659.452637,96.696068 1663.940430,96.921219 1668.738037,96.921219 
	C1668.738037,76.308746 1668.738037,56.068092 1668.738037,35.086407 
	C1664.605347,35.086407 1660.335449,35.197475 1656.073608,35.060638 
	C1649.509155,34.849876 1645.938965,31.514147 1646.001587,25.885984 
	C1646.065186,20.167074 1649.499390,17.053173 1656.204468,17.020123 
	C1671.699585,16.943745 1687.195557,16.937796 1702.690552,17.023199 
	C1709.752563,17.062124 1712.949585,19.935726 1712.955444,25.807793 
	C1712.961304,31.703016 1709.900635,34.655251 1703.017334,35.004383 
	C1698.885254,35.213966 1694.734009,35.042885 1690.215576,35.042885 
	C1690.215576,55.658211 1690.215576,75.892014 1690.215576,97.050827 
	C1694.933472,97.050827 1699.873901,96.779739 1704.771606,97.122589 
	C1710.319824,97.510986 1712.940918,100.622261 1712.967163,105.846169 
	C1712.990723,110.539833 1710.674072,113.446877 1706.167480,114.305382 
	C1703.414551,114.829819 1700.545654,114.901947 1697.728516,114.907341 
	C1684.066772,114.933502 1670.403198,114.986061 1656.743774,114.787987 
	C1649.460205,114.682350 1647.334717,112.779518 1646.002075,105.941818 
z"/>
<path fill="#0C0C0C" opacity="1.000000" stroke="none" 
	d="
M1810.126221,96.810432 
	C1813.269287,96.837494 1815.941528,96.743668 1818.596680,96.916077 
	C1824.631226,97.307953 1827.967773,100.539658 1827.927002,105.769569 
	C1827.882446,111.504837 1824.712646,114.729942 1818.349731,114.792976 
	C1804.358765,114.931587 1790.365234,114.855209 1776.372925,114.803642 
	C1768.715332,114.775414 1761.057861,114.641602 1753.401001,114.514893 
	C1742.638794,114.336823 1738.856079,111.324844 1738.675537,100.796951 
	C1738.252930,76.157326 1738.311157,51.507790 1738.380981,26.862850 
	C1738.394409,22.125221 1739.464722,17.471695 1745.131592,15.936815 
	C1752.741089,13.875772 1757.883423,18.104227 1758.036621,27.106396 
	C1758.266113,40.594765 1758.168091,54.089088 1758.165039,67.580872 
	C1758.163574,74.242218 1758.006104,80.903679 1758.020996,87.564857 
	C1758.039429,95.840256 1759.203491,96.922943 1767.680298,96.905090 
	C1781.669434,96.875633 1795.658447,96.842186 1810.126221,96.810432 
z"/>
<path fill="#0C0C0C" opacity="1.000000" stroke="none" 
	d="
M375.216614,21.584225 
	C378.234131,16.104406 381.318024,14.690929 386.781219,15.859562 
	C391.960205,16.967398 393.770355,20.834055 393.850281,25.389856 
	C394.124847,41.033123 394.115173,56.681648 394.172180,72.328323 
	C394.193420,78.153748 394.064453,83.979607 394.068695,89.805229 
	C394.072784,95.436562 395.392120,96.780830 401.154724,96.795532 
	C417.634064,96.837585 434.113586,96.790344 450.592896,96.833519 
	C452.910767,96.839592 455.291443,96.875511 457.532043,97.385361 
	C462.142731,98.434547 464.072723,101.825043 463.865936,106.272720 
	C463.661407,110.671196 461.674530,114.438339 456.821930,114.445114 
	C432.371674,114.479263 407.918121,114.377487 383.472900,113.929390 
	C378.506378,113.838348 375.432678,109.699936 374.976959,103.758347 
	C374.456421,96.971664 374.352142,90.142776 374.318939,83.331009 
	C374.234650,66.016922 374.251892,48.701973 374.326599,31.387793 
	C374.340179,28.244898 374.819305,25.104013 375.216614,21.584225 
z"/>
<path fill="#24B4A5" opacity="1.000000" stroke="none" 
	d="
M555.948669,17.141289 
	C562.003662,17.725206 564.601685,20.157242 564.976990,25.592724 
	C565.321899,30.587725 562.945007,33.271210 556.007874,34.632133 
	C545.250305,34.216640 535.173767,34.097431 525.097046,34.066616 
	C524.387512,34.064449 523.676086,34.714840 522.965515,35.061790 
	C522.785950,35.282524 522.591980,35.489723 521.910217,36.108871 
	C521.294434,37.173744 521.028259,37.812996 521.027466,38.452541 
	C521.002747,59.871521 520.990906,81.290550 521.036743,102.709457 
	C521.039062,103.789497 521.572266,104.868401 521.858337,105.947830 
	C521.462585,113.372360 519.392395,115.186661 511.166016,115.318520 
	C505.925140,115.402534 503.517242,112.564011 503.367035,105.039200 
	C503.785980,82.282852 503.896301,60.237362 503.947235,38.191727 
	C503.948914,37.465134 503.347443,36.737148 503.027130,36.009811 
	C502.834412,35.754547 502.620117,35.518879 501.905884,34.853035 
	C494.347534,34.268787 487.267120,34.022568 480.187714,34.048443 
	C476.805573,34.060806 473.425293,34.589577 470.044189,34.884445 
	C463.555389,34.540512 460.843750,31.522890 460.724609,24.513237 
	C460.644012,19.770046 463.634033,17.420622 470.960144,17.357311 
	C472.320435,17.788933 472.969177,17.983553 473.618073,17.983957 
	C499.817871,18.000275 526.017639,18.010809 552.217407,17.963610 
	C553.461609,17.961369 554.704956,17.427551 555.948669,17.141289 
z"/>
<path fill="#25B6A8" opacity="1.000000" stroke="none" 
	d="
M953.593811,20.120663 
	C953.894226,50.085712 953.910461,80.317398 953.887817,111.062241 
	C953.254761,108.891022 952.158264,106.209259 952.144287,103.521858 
	C952.012756,78.245201 952.032288,52.967468 952.120361,27.690432 
	C952.128845,25.254700 952.895081,22.821609 953.593811,20.120663 
z"/>
<path fill="#00AF9F" opacity="1.000000" stroke="none" 
	d="
M555.489990,17.057655 
	C554.704956,17.427551 553.461609,17.961369 552.217407,17.963610 
	C526.017639,18.010809 499.817871,18.000275 473.618073,17.983957 
	C472.969177,17.983553 472.320435,17.788933 471.364532,17.412678 
	C499.048767,17.084982 527.040100,17.029501 555.489990,17.057655 
z"/>
<path fill="#00AD9C" opacity="1.000000" stroke="none" 
	d="
M585.058716,32.511299 
	C585.427429,33.294884 585.960693,34.536709 585.963318,35.779648 
	C586.012695,59.305511 586.001831,82.831512 585.986755,106.357475 
	C585.986389,107.007149 585.802551,107.656708 585.438843,108.617004 
	C585.075989,88.774139 584.967163,68.620644 584.888855,48.467030 
	C584.868774,43.301563 584.944580,38.135727 585.058716,32.511299 
z"/>
<path fill="#00AD9C" opacity="1.000000" stroke="none" 
	d="
M521.958008,105.491806 
	C521.572266,104.868401 521.039062,103.789497 521.036743,102.709457 
	C520.990906,81.290550 521.002747,59.871521 521.027466,38.452541 
	C521.028259,37.812996 521.294434,37.173744 521.749329,36.248470 
	C522.060364,58.986984 522.058960,82.011383 521.958008,105.491806 
z"/>
<path fill="#00AF9F" opacity="1.000000" stroke="none" 
	d="
M502.991486,36.476673 
	C503.347443,36.737148 503.948914,37.465134 503.947235,38.191727 
	C503.896301,60.237362 503.785980,82.282852 503.412689,104.635399 
	C503.078918,82.276138 503.017395,59.609837 502.991486,36.476673 
z"/>
<path fill="#00AB9A" opacity="1.000000" stroke="none" 
	d="
M971.271790,59.282047 
	C970.810303,59.369209 970.047485,59.007862 970.048584,58.648930 
	C970.085388,46.997246 970.195740,35.345818 970.561035,23.384115 
	C970.993408,34.994137 971.159973,46.914398 971.271790,59.282047 
z"/>
<path fill="#2AB9AB" opacity="1.000000" stroke="none" 
	d="
M892.584229,15.969910 
	C886.535095,16.267570 880.084839,16.451258 873.326355,16.359169 
	C879.406433,16.007572 885.794739,15.931755 892.584229,15.969910 
z"/>
<path fill="#00AD9C" opacity="1.000000" stroke="none" 
	d="
M523.436157,35.091911 
	C523.676086,34.714840 524.387512,34.064449 525.097046,34.066616 
	C535.173767,34.097431 545.250305,34.216640 555.634155,34.586155 
	C545.263306,34.945892 534.585022,35.033962 523.436157,35.091911 
z"/>
<path fill="#00AD9C" opacity="1.000000" stroke="none" 
	d="
M470.499878,34.988190 
	C473.425293,34.589577 476.805573,34.060806 480.187714,34.048443 
	C487.267120,34.022568 494.347534,34.268787 501.717010,34.706360 
	C491.656189,35.036957 481.305878,35.064449 470.499878,34.988190 
z"/>
<path fill="#25B6A8" opacity="1.000000" stroke="none" 
	d="
M957.719727,16.698753 
	C957.487915,17.195723 956.949890,17.518635 956.078613,17.762218 
	C956.301392,17.296825 956.857422,16.910761 957.719727,16.698753 
z"/>
<path fill="#25B6A8" opacity="1.000000" stroke="none" 
	d="
M954.421875,18.787712 
	C954.560730,19.013294 954.453369,19.357874 954.082642,19.811155 
	C953.938110,19.582140 954.056885,19.244425 954.421875,18.787712 
z"/>
<path fill="#25B6A8" opacity="1.000000" stroke="none" 
	d="
M955.489685,17.748787 
	C955.577515,17.999956 955.408752,18.330111 954.942261,18.672184 
	C954.840698,18.398663 955.036865,18.113216 955.489685,17.748787 
z"/>
<path fill="#25B6A8" opacity="1.000000" stroke="none" 
	d="
M953.956299,112.265091 
	C954.195984,112.209587 954.471191,112.435135 954.818604,112.924210 
	C954.591187,112.973885 954.291504,112.760010 953.956299,112.265091 
z"/>
<path fill="#25B6A8" opacity="1.000000" stroke="none" 
	d="
M954.921021,113.375038 
	C955.128418,113.275581 955.444275,113.437965 955.889160,113.840073 
	C955.688660,113.932152 955.359070,113.784508 954.921021,113.375038 
z"/>
<path fill="#F8F8F8" opacity="1.000000" stroke="none" 
	d="
M1218.702881,74.845757 
	C1226.111694,75.719749 1229.684814,78.801659 1229.989136,84.250710 
	C1230.369019,91.051804 1227.430664,94.823578 1220.145996,96.072624 
	C1216.264282,96.738205 1212.255859,96.852089 1208.302368,96.878708 
	C1194.683716,96.970398 1181.063965,96.913971 1166.765625,96.913971 
	C1166.765625,89.464043 1166.765625,82.173607 1166.765625,74.792137 
	C1183.807129,74.792137 1201.032959,74.792137 1218.702881,74.845757 
z"/>
<path fill="#FBFBFB" opacity="1.000000" stroke="none" 
	d="
M1174.052612,56.147293 
	C1171.256592,56.147297 1168.952271,56.147297 1166.234009,56.147297 
	C1166.234009,50.612049 1166.109375,45.346066 1166.278198,40.089504 
	C1166.389893,36.610085 1168.885742,35.156376 1171.979614,35.138702 
	C1186.772461,35.054211 1201.572998,34.847603 1216.357056,35.224289 
	C1225.638184,35.460770 1230.598877,43.026386 1226.809082,50.317375 
	C1224.445679,54.864166 1220.079468,55.923855 1215.430176,55.963364 
	C1201.802002,56.079185 1188.172974,56.093323 1174.052612,56.147293 
z"/>
<path fill="#F5F5F5" opacity="1.000000" stroke="none" 
	d="
M53.996746,61.778366 
	C44.700527,61.778622 35.903835,61.778622 27.012962,61.778622 
	C27.012962,53.750294 26.802668,46.003788 27.239647,38.293976 
	C27.305208,37.137264 30.383423,35.263382 32.097534,35.229828 
	C44.738419,34.982388 57.395721,34.836296 70.029541,35.236500 
	C77.863831,35.484669 82.037483,40.761055 81.961609,48.867920 
	C81.891975,56.306957 77.095642,61.168201 68.968567,61.641811 
	C64.158157,61.922150 59.321262,61.747929 53.996746,61.778366 
z"/>
<path fill="#F7F7F7" opacity="1.000000" stroke="none" 
	d="
M1302.068604,61.965900 
	C1299.267334,61.965832 1296.955322,61.965832 1294.199463,61.965832 
	C1294.199463,55.089275 1293.957886,48.487701 1294.282593,41.914108 
	C1294.507202,37.370800 1297.711426,35.184525 1302.039795,35.139900 
	C1313.698242,35.019714 1325.366821,34.832043 1337.015625,35.188496 
	C1345.542847,35.449429 1349.547852,40.249104 1349.383423,48.752594 
	C1349.215088,57.463352 1345.375244,61.521610 1336.035889,61.800690 
	C1324.884766,62.133911 1313.718018,61.934601 1302.068604,61.965900 
z"/>
<path fill="#F8F9F9" opacity="1.000000" stroke="none" 
	d="
M649.969238,35.597408 
	C657.164978,37.893063 659.163391,41.014606 659.003784,49.709621 
	C658.882751,56.300793 656.209717,59.282318 647.875366,61.601768 
	C633.114868,61.949375 619.073181,62.016018 605.031555,62.082649 
	C604.739868,61.869061 604.448242,61.655472 604.067261,60.736774 
	C603.988037,52.352303 603.997986,44.672947 604.007935,36.993576 
	C604.623718,36.529667 605.239563,36.065762 606.464844,35.325981 
	C621.372620,35.232544 635.670959,35.414974 649.969238,35.597408 
z"/>
<path fill="#00AF9F" opacity="1.000000" stroke="none" 
	d="
M649.778076,35.197948 
	C635.670959,35.414974 621.372620,35.232544 606.617188,35.079872 
	C606.418884,34.737316 606.676880,34.040001 606.936890,34.039268 
	C620.563232,34.000656 634.189758,34.011471 647.816040,34.067410 
	C648.407288,34.069836 648.996643,34.544048 649.778076,35.197948 
z"/>
<path fill="#00AE9D" opacity="1.000000" stroke="none" 
	d="
M605.331299,62.367973 
	C619.073181,62.016018 633.114868,61.949375 647.637085,61.862244 
	C647.415649,62.216801 646.712646,62.920322 646.011719,62.918301 
	C632.551331,62.879475 619.091187,62.757832 605.331299,62.367973 
z"/>
<path fill="#00B0A0" opacity="1.000000" stroke="none" 
	d="
M603.704895,37.283241 
	C603.997986,44.672947 603.988037,52.352303 603.935303,60.495941 
	C603.728943,53.164444 603.565430,45.368671 603.704895,37.283241 
z"/>
<path fill="#F3F3F3" opacity="1.000000" stroke="none" 
	d="
M301.987213,73.844513 
	C293.163025,73.844513 284.836884,73.844513 275.493164,73.844513 
	C282.649902,61.761143 289.504761,50.187500 296.851318,37.783627 
	C303.309021,49.867046 309.430206,61.320755 316.123260,73.844521 
	C310.885254,73.844521 306.685242,73.844521 301.987213,73.844513 
z"/>
<path fill="#F0F0F0" opacity="1.000000" stroke="none" 
	d="
M1443.088867,44.061237 
	C1444.282227,41.852074 1445.326782,39.982624 1446.840210,37.273937 
	C1453.560547,49.410828 1459.978516,61.001808 1466.759766,73.248718 
	C1453.320190,73.248718 1440.585693,73.248718 1427.098633,73.248718 
	C1432.515747,63.383835 1437.727905,53.892395 1443.088867,44.061237 
z"/>
<path fill="#F2F6F6" opacity="1.000000" stroke="none" 
	d="
M738.013916,73.907532 
	C738.044617,73.102272 737.809998,72.159576 738.145386,71.512161 
	C744.075806,60.065212 750.075684,48.654224 756.410828,36.567120 
	C757.917419,39.099609 759.235535,41.048038 760.288391,43.130558 
	C765.410461,53.262066 770.461609,63.429455 774.811401,73.703979 
	C762.061218,73.851707 750.037598,73.879623 738.013916,73.907532 
z"/>
<path fill="#00AC9B" opacity="1.000000" stroke="none" 
	d="
M738.283081,74.230537 
	C750.037598,73.879623 762.061218,73.851707 774.549683,73.899208 
	C774.460205,74.295891 773.904236,74.900215 773.352051,74.896736 
	C761.751892,74.823624 750.152100,74.681847 738.283081,74.230537 
z"/>
</svg>