<svg version="1.1" id="Layer_1" xmlns="http://www.w3.org/2000/svg" xmlns:xlink="http://www.w3.org/1999/xlink" x="0px" y="0px"
	 width="100%" viewBox="0 0 1836 130" enable-background="new 0 0 1836 130" xml:space="preserve">
<path fill="#FCFDFC" opacity="1.000000" stroke="none" 
	d="
M1763.000000,131.000000 
	C1175.407959,131.000000 588.315918,131.000000 1.111923,131.000000 
	C1.111923,87.747047 1.111923,44.493706 1.111923,1.120183 
	C613.000000,1.120183 1225.000000,1.120183 1836.995117,1.120183 
	C1836.995117,44.350838 1836.995117,87.675423 1836.992676,131.000000 
	C1812.493530,131.000000 1787.996704,131.000000 1763.000000,131.000000 
M1242.677002,106.038826 
	C1242.905396,105.732590 1243.133911,105.426353 1243.944458,104.799103 
	C1253.040771,94.573875 1253.681274,74.470634 1235.178101,65.470215 
	C1235.941895,64.761864 1236.556274,63.943684 1237.371338,63.473309 
	C1251.695679,55.206715 1249.543213,28.464825 1234.908813,21.784342 
	C1229.485962,19.308931 1223.218384,17.786964 1217.267944,17.551226 
	C1204.883301,17.060593 1192.453125,17.718363 1179.509766,17.233299 
	C1174.760620,17.204865 1169.997681,16.942118 1165.266357,17.218452 
	C1161.111572,17.461109 1156.992310,18.307894 1152.945312,18.909994 
	C1152.945312,18.909994 1152.936279,18.819679 1152.329346,18.890856 
	C1151.877930,19.257658 1151.426392,19.624460 1150.431030,20.241173 
	C1149.917358,21.054377 1149.403687,21.867579 1148.297485,23.223469 
	C1147.930420,31.156141 1147.563477,39.088814 1147.030518,47.943096 
	C1147.082031,60.286259 1147.133423,72.629425 1147.064819,85.906120 
	C1147.055298,88.374588 1146.855835,90.860092 1147.075439,93.307999 
	C1147.550903,98.606552 1148.240845,103.885857 1148.869995,109.080521 
	C1148.869995,109.080521 1148.775513,109.099571 1148.888428,109.682503 
	C1149.250610,110.135651 1149.612671,110.588806 1150.005249,111.007553 
	C1150.005249,111.007553 1149.962402,111.022202 1150.239380,111.687897 
	C1154.171265,112.712059 1158.086670,114.541550 1162.037720,114.621704 
	C1179.626953,114.978500 1197.235352,115.171379 1214.817139,114.695770 
	C1221.271240,114.521187 1227.670898,112.336624 1234.027100,111.021835 
	C1234.027100,111.021835 1234.035522,111.104294 1234.647217,111.065201 
	C1235.150024,110.754395 1235.652832,110.443588 1236.070801,110.098824 
	C1236.070801,110.098824 1236.074707,110.190147 1236.668091,110.107231 
	C1237.145264,109.761490 1237.622314,109.415756 1238.032837,109.020355 
	C1238.032837,109.020355 1238.037231,109.103226 1238.668823,109.001747 
	C1238.974121,108.715881 1239.279541,108.430023 1240.045532,108.072968 
	C1240.381714,107.768356 1240.717773,107.463737 1241.588867,107.010590 
	C1241.803101,106.720779 1242.017334,106.430969 1242.111206,106.112373 
	C1242.111206,106.112373 1242.130127,106.234787 1242.677002,106.038826 
M378.602631,111.412804 
	C378.602631,111.412804 378.618500,111.499992 378.822174,111.938904 
	C379.050995,112.192749 379.335846,112.331573 379.837219,112.230232 
	C379.837219,112.230232 379.725281,112.400177 380.089081,112.899834 
	C381.062195,113.221870 382.035339,113.543915 383.800232,114.126938 
	C384.625061,114.233795 385.449280,114.429184 386.274780,114.434593 
	C409.231812,114.585037 432.188995,114.751984 455.146271,114.776726 
	C456.823975,114.778534 458.502777,113.727760 460.062958,113.087990 
	C460.062958,113.087990 460.130798,113.212471 460.694489,113.032089 
	C460.813568,112.692963 460.932648,112.353844 461.351044,111.407639 
	C465.016815,107.549255 463.645538,103.781052 461.055084,99.260101 
	C457.771454,98.460846 454.497437,97.018448 451.202606,96.969139 
	C432.997253,96.696724 414.786804,96.763924 396.460754,96.165123 
	C395.674438,95.392029 394.888153,94.618935 394.116913,92.928749 
	C394.095154,91.265121 394.059814,89.601540 394.053741,87.937851 
	C393.978058,67.305298 393.906647,46.672729 393.931000,25.255407 
	C392.328461,22.450430 390.725891,19.645454 388.994781,16.938362 
	C388.994781,16.938362 389.141693,16.871256 388.730286,16.266825 
	C385.636597,16.440163 382.542908,16.613501 378.968048,16.865166 
	C378.613007,17.171152 378.257965,17.477139 377.237213,18.048250 
	C376.225525,21.137218 374.363495,24.218964 374.337189,27.316303 
	C374.133789,51.263935 374.145264,75.216507 374.473206,99.162300 
	C374.524323,102.894157 376.520111,106.599388 377.842682,110.033752 
	C377.842682,110.033752 377.648041,110.339325 377.776031,110.808167 
	C377.926453,111.125343 378.173767,111.318146 378.602631,111.412804 
M1710.695190,112.069267 
	C1710.864868,111.744293 1711.034546,111.419312 1711.109985,111.086342 
	C1711.109985,111.086342 1711.145142,111.174156 1711.757812,110.723778 
	C1713.510376,106.790230 1713.935059,103.004616 1710.435669,99.553093 
	C1710.435669,99.553093 1710.354004,99.454056 1709.986450,98.905960 
	C1707.993164,98.331429 1705.999756,97.756897 1703.182861,97.246002 
	C1698.738770,97.163589 1694.294678,97.081184 1689.913818,96.063843 
	C1689.899780,82.898285 1689.832031,69.732483 1689.893311,56.567276 
	C1689.926636,49.418839 1690.179932,42.271420 1690.672729,35.161446 
	C1690.672729,35.161446 1690.989990,35.036865 1691.917358,35.180340 
	C1697.718994,34.493855 1703.520630,33.807365 1709.871582,33.019833 
	C1710.288208,32.453808 1710.704834,31.887785 1711.721069,30.821493 
	C1713.636475,26.864145 1713.857178,23.081747 1710.494263,19.491680 
	C1710.494263,19.491680 1710.362915,19.360584 1710.038574,18.909374 
	C1709.352661,18.639582 1708.666870,18.369791 1707.245850,17.702936 
	C1689.525513,17.542715 1671.805176,17.382494 1653.346558,17.216450 
	C1647.753052,18.768095 1645.504028,21.842949 1646.059082,27.180092 
	C1646.537231,31.777632 1649.603271,34.702435 1654.781738,34.981087 
	C1659.409424,35.230103 1664.058838,35.078888 1668.929321,36.003372 
	C1668.852051,56.301090 1668.774658,76.598808 1667.880005,96.859993 
	C1663.268555,97.204979 1658.657104,97.549965 1653.629395,97.400688 
	C1652.227173,97.885475 1650.824829,98.370270 1648.942017,98.937164 
	C1648.580322,99.432899 1648.218750,99.928627 1647.231934,100.948471 
	C1645.583008,104.471649 1645.170166,107.923759 1647.877197,111.104561 
	C1647.877197,111.104561 1647.768921,111.125450 1647.931152,111.657433 
	C1648.214722,111.872742 1648.498291,112.088043 1648.820679,112.192352 
	C1648.820679,112.192352 1648.710327,112.232986 1648.952515,112.749542 
	C1649.307495,112.856720 1649.662598,112.963898 1650.198853,113.235611 
	C1650.198853,113.235611 1650.423584,113.138405 1650.974487,113.772163 
	C1652.914551,114.131699 1654.852295,114.788284 1656.795044,114.803566 
	C1671.717407,114.920929 1686.641235,114.992424 1701.562744,114.863708 
	C1703.906372,114.843498 1706.240845,113.739960 1708.815918,113.210327 
	C1708.815918,113.210327 1708.990845,113.035210 1709.547729,112.976448 
	C1709.783081,112.707474 1710.018433,112.438499 1710.131226,112.146790 
	C1710.131226,112.146790 1710.167358,112.266068 1710.695190,112.069267 
M1742.963867,111.003906 
	C1742.963867,111.003906 1742.654907,111.342728 1742.822388,111.827248 
	C1743.106323,112.000816 1743.390259,112.174377 1743.810059,112.270035 
	C1743.810059,112.270035 1743.725586,112.401901 1744.089844,112.900803 
	C1745.062622,113.222511 1746.035522,113.544212 1747.800049,114.126884 
	C1748.624878,114.233749 1749.449097,114.429153 1750.274658,114.434555 
	C1773.231812,114.585007 1796.189087,114.751968 1819.146484,114.776718 
	C1820.824097,114.778526 1822.502930,113.727753 1824.074097,113.099373 
	C1824.074097,113.099373 1824.122559,113.216019 1824.654785,113.071678 
	C1824.863647,112.782776 1825.072388,112.493874 1825.170654,112.173737 
	C1825.170654,112.173737 1825.212402,112.280731 1825.723022,112.074150 
	C1825.887573,111.755211 1826.052124,111.436279 1826.102661,111.081299 
	C1826.102661,111.081299 1826.167603,111.181732 1826.767700,110.732407 
	C1826.583740,107.419197 1826.399902,104.105988 1826.119507,100.856239 
	C1826.119507,100.856239 1826.207886,100.930511 1826.074341,100.351311 
	C1825.752319,100.153519 1825.430298,99.955734 1825.171143,99.887505 
	C1825.171143,99.887505 1825.276489,99.789337 1824.971191,99.105827 
	C1822.156006,98.358757 1819.354004,97.031326 1816.523315,96.967041 
	C1805.433350,96.715164 1794.332642,96.972603 1783.238892,96.822861 
	C1775.493408,96.718315 1767.752686,96.259071 1759.794800,95.538460 
	C1759.601074,95.276649 1759.349976,95.093796 1758.933105,94.358459 
	C1758.600342,93.572334 1758.267700,92.786217 1758.064087,91.070419 
	C1757.989624,69.401329 1757.915161,47.732243 1757.903076,25.281250 
	C1756.673218,17.675236 1753.256714,15.632883 1743.383667,16.730158 
	C1742.870239,17.104595 1742.356934,17.479034 1742.001831,17.954678 
	C1742.001831,17.954678 1741.862793,17.828043 1741.199341,18.080246 
	C1740.197998,21.498894 1738.361328,24.909948 1738.330078,28.337421 
	C1738.117065,51.776348 1738.139771,75.220726 1738.468140,98.657990 
	C1738.523071,102.569458 1740.438599,106.454849 1741.581177,110.378357 
	C1741.581177,110.378357 1741.622559,110.459038 1741.815552,110.910515 
	C1742.038574,111.177170 1742.323242,111.325371 1742.963867,111.003906 
M92.075211,25.928312 
	C92.075211,25.928312 92.181030,25.904520 91.978188,25.393766 
	C91.668396,25.221115 91.358597,25.048464 91.041077,24.962885 
	C91.041077,24.962885 91.115532,24.917086 90.760254,24.403967 
	C89.869522,23.888641 88.978783,23.373316 88.030388,22.951788 
	C88.030388,22.951788 88.130150,22.905201 87.775749,22.306252 
	C80.499298,17.542475 72.382950,16.693733 63.054310,17.035597 
	C49.393917,17.086109 35.733524,17.136621 21.256798,17.076370 
	C16.229242,17.974947 10.419827,17.561499 8.280676,24.962854 
	C7.861622,26.902611 7.081110,28.841843 7.078280,30.782206 
	C7.041738,55.832897 7.115959,80.883751 7.097912,106.702431 
	C8.238702,115.649147 12.572518,116.447594 21.151787,113.942009 
	C22.742035,113.477570 23.768816,111.083786 25.737471,108.959061 
	C25.987375,106.846428 26.383661,104.739113 26.460804,102.620193 
	C26.734724,95.096062 26.899818,87.567970 27.037777,80.138962 
	C27.037777,80.138962 27.137241,80.204552 27.951885,80.190094 
	C29.303972,80.103424 30.656057,80.016754 32.869186,79.949471 
	C39.216396,79.852150 45.563606,79.754829 52.650566,79.972946 
	C54.735477,80.376640 56.820389,80.780334 59.404354,81.648552 
	C62.561417,85.277634 65.818420,88.825363 68.853668,92.553627 
	C74.294960,99.237282 79.355339,106.248596 85.059456,112.694168 
	C88.475929,116.554726 94.735611,115.918480 99.485901,112.356628 
	C103.861328,109.075867 101.431496,105.683517 99.807076,102.374680 
	C98.873871,100.473816 97.612541,98.698586 96.293976,97.028625 
	C91.190132,90.564644 86.003975,84.165657 80.548500,77.368729 
	C96.176163,70.664871 102.832352,59.285431 100.887794,42.218967 
	C98.977585,37.953033 97.067375,33.687099 94.989998,28.906979 
	C94.395515,28.248745 93.801033,27.590509 92.997971,26.415340 
	C92.692810,26.216923 92.387642,26.018505 92.075211,25.928312 
M133.716415,19.574171 
	C133.716415,19.574171 133.648941,19.579567 133.102585,19.750500 
	C132.713593,20.153337 132.324600,20.556175 131.997086,20.997150 
	C131.997086,20.997150 131.958847,20.935749 131.434418,21.208090 
	C131.167786,21.725149 130.901138,22.242207 130.711960,23.003996 
	C130.711960,23.003996 130.672577,22.750391 130.104919,23.218571 
	C129.482147,26.280794 128.347305,29.338306 128.319107,32.405998 
	C128.125351,53.467606 127.919563,74.535744 128.299637,95.591278 
	C128.393524,100.793365 130.633347,105.956711 131.952774,111.052505 
	C131.952774,111.052505 131.848297,111.079613 132.026932,111.622566 
	C132.356842,111.776489 132.686737,111.930420 133.195328,112.243454 
	C133.195328,112.243454 133.419327,112.159363 133.788208,112.681000 
	C134.179916,112.824059 134.571640,112.967125 134.967636,113.026337 
	C134.967636,113.026337 134.899231,113.075012 135.454407,113.616699 
	C137.572281,113.946510 139.688278,114.549599 141.808319,114.564125 
	C164.717178,114.721107 187.626755,114.835854 210.535828,114.793304 
	C212.703186,114.789284 214.868423,113.639236 217.004242,112.996101 
	C217.004242,112.996101 217.017654,113.032516 217.609238,112.882553 
	C218.071655,112.254814 218.534088,111.627068 219.177597,110.812584 
	C219.177597,110.812584 219.067230,110.577019 219.659012,110.069443 
	C220.605072,105.904137 221.408371,101.772125 216.769211,98.307747 
	C216.197723,98.170380 215.626236,98.033020 214.371429,97.406631 
	C212.890915,97.226913 211.410477,96.891571 209.929886,96.890961 
	C189.621658,96.882584 169.313431,96.920372 149.124405,96.970703 
	C149.124405,96.970703 149.159607,96.854332 148.831436,95.986511 
	C148.866943,88.867683 148.902451,81.748863 149.882111,74.626518 
	C156.003082,74.629799 162.125610,74.723282 168.244675,74.616745 
	C179.476242,74.421211 190.705750,74.107773 202.646774,73.857803 
	C207.523514,71.544739 208.643478,67.375778 207.614349,62.634056 
	C206.529831,57.637169 202.295654,56.525715 197.988983,56.456291 
	C187.366882,56.285076 176.740250,56.395950 166.115433,56.394264 
	C160.210098,56.393330 154.304749,56.394096 147.999405,56.394096 
	C147.999405,50.649158 147.753891,45.677948 148.124542,40.753117 
	C148.265747,38.877106 149.821075,37.107525 151.722748,35.207912 
	C154.210114,35.155918 156.697296,35.069950 159.184860,35.057369 
	C176.765427,34.968472 194.346100,34.894642 212.669632,34.901386 
	C218.832275,33.079868 220.967468,30.296883 220.348404,24.892981 
	C219.735184,19.540039 217.194412,17.459452 210.021255,17.006094 
	C187.692032,17.065601 165.362823,17.125109 142.234833,17.090628 
	C139.966324,17.670748 137.697800,18.250870 135.198303,18.750879 
	C135.198303,18.750879 135.013184,18.910589 134.462997,18.934366 
	C134.203049,19.167284 133.943100,19.400202 133.716415,19.574171 
M1616.533569,41.739212 
	C1616.810547,41.230976 1617.087646,40.722736 1617.297241,40.099197 
	C1617.297241,40.099197 1617.285767,40.232250 1617.891968,39.819832 
	C1619.780884,36.054489 1619.064209,32.741886 1616.110107,29.948292 
	C1616.110107,29.948292 1616.209717,29.844067 1615.965088,29.237963 
	C1614.670166,28.113508 1613.375244,26.989056 1612.032349,25.952509 
	C1612.032349,25.952509 1612.125854,25.916645 1611.770020,25.326649 
	C1609.167847,24.183132 1606.565796,23.039616 1603.398315,21.479734 
	C1593.099365,16.699694 1582.092041,15.307952 1570.930664,15.106419 
	C1567.603394,15.046341 1564.206421,16.992657 1560.921997,16.779188 
	C1551.735474,16.182129 1543.669189,19.561350 1535.809326,23.328392 
	C1525.096802,28.462639 1520.847778,38.649639 1522.872437,52.424328 
	C1524.251953,61.809792 1531.124390,68.475533 1542.503540,69.975807 
	C1554.196899,71.517487 1566.018799,72.070572 1577.776489,73.142700 
	C1584.384888,73.745293 1591.146851,73.831642 1597.533691,75.397957 
	C1605.329468,77.309853 1606.966797,86.244423 1600.562500,91.173355 
	C1595.799438,94.839050 1590.461182,97.928833 1583.543823,97.283455 
	C1566.766846,99.070045 1550.713135,97.123322 1535.911011,88.305420 
	C1534.578735,87.511833 1532.741943,87.565079 1530.506836,87.005638 
	C1526.607178,87.746552 1523.756958,89.769585 1522.984131,93.827599 
	C1522.119873,98.366592 1523.959717,101.798759 1527.709961,104.422783 
	C1538.931030,112.274239 1551.604614,115.289322 1565.962158,115.998703 
	C1581.952393,116.310806 1597.461426,114.405151 1612.221802,106.001137 
	C1622.628906,99.925705 1624.000244,90.090836 1622.735229,79.532013 
	C1621.474487,69.007858 1615.273438,61.952770 1604.977295,59.877441 
	C1593.553833,57.574867 1581.908691,56.301373 1570.319458,54.920353 
	C1563.736938,54.135944 1557.063110,54.151142 1550.449829,53.580429 
	C1546.336426,53.225445 1542.100220,49.153336 1541.909424,45.652752 
	C1541.664185,41.151398 1544.678101,39.132858 1548.340332,37.916946 
	C1566.786377,31.792645 1584.850708,31.666254 1602.208862,41.605297 
	C1606.059082,43.809822 1609.977783,45.460133 1614.932617,43.115540 
	C1615.290283,42.744812 1615.647949,42.374081 1616.000000,42.000000 
	C1616.000000,42.000000 1616.002686,42.006321 1616.533569,41.739212 
M1453.803711,91.923889 
	C1455.958740,91.754585 1458.116943,91.410660 1460.268311,91.448463 
	C1466.934814,91.565636 1474.100708,90.684166 1478.694092,97.041344 
	C1481.195923,100.503716 1483.273682,104.402969 1484.840698,108.381691 
	C1487.714355,115.677727 1497.211304,118.140274 1502.297119,112.499702 
	C1505.912476,108.489761 1504.640625,104.151291 1502.459106,100.038086 
	C1497.190063,90.103333 1491.774902,80.246254 1486.451538,70.340149 
	C1478.370483,55.301895 1470.358887,40.226055 1462.232056,25.212563 
	C1458.851807,18.967936 1453.814941,14.811245 1446.399536,14.962779 
	C1438.727661,15.119551 1433.984985,19.900719 1430.567993,26.242785 
	C1421.192139,43.645554 1411.824951,61.053101 1402.509033,78.488007 
	C1398.593994,85.815071 1394.721069,93.167923 1391.007935,100.598488 
	C1388.177490,106.262764 1389.589966,114.228813 1394.820190,114.750252 
	C1401.898682,115.455925 1403.673828,116.336815 1408.023193,109.707260 
	C1410.654175,105.697372 1412.760010,101.313004 1414.803589,96.957008 
	C1416.512573,93.314026 1419.114380,91.671799 1423.077759,91.897469 
	C1424.733276,91.991722 1426.402344,91.847038 1428.982666,91.966362 
	C1436.963989,91.915527 1444.945190,91.864693 1453.803711,91.923889 
M269.598022,92.192268 
	C280.374268,92.065948 291.150543,91.939636 302.803772,91.922844 
	C304.957672,91.753868 307.109009,91.535393 309.265869,91.424400 
	C319.221252,90.912079 327.610596,93.382812 332.189362,103.319969 
	C333.542755,106.257156 334.831665,109.342522 336.801575,111.847717 
	C339.376709,115.122551 342.882019,116.888145 347.330170,115.345665 
	C351.614807,113.859894 354.095184,111.249565 353.077911,106.451599 
	C352.477356,103.619133 352.102356,100.598282 350.815277,98.075775 
	C344.563507,85.823357 338.086731,73.684547 331.595001,61.556129 
	C325.339630,49.869282 319.086487,38.178402 312.615479,26.610622 
	C306.086517,14.939257 292.293152,10.796419 283.758362,20.792854 
	C281.622772,23.294149 279.759735,26.108746 278.203125,29.010893 
	C266.821167,50.231110 255.516754,71.493202 244.273788,92.787437 
	C242.341476,96.447243 240.429749,100.203354 239.218231,104.133736 
	C238.057068,107.900879 238.274231,111.569916 242.735947,113.821991 
	C249.254181,117.112099 253.930222,115.519539 258.206024,108.396866 
	C261.494324,102.919167 265.103729,97.634224 269.598022,92.192268 
M1289.253662,17.072121 
	C1279.408936,17.835087 1276.590210,20.246778 1275.032837,29.985418 
	C1275.003052,55.050835 1274.947754,80.116295 1274.993530,105.181572 
	C1274.997070,107.108276 1275.713257,109.033684 1276.153931,111.702179 
	C1279.530396,116.666939 1284.826538,115.478050 1289.062988,114.505173 
	C1291.118164,114.033211 1292.260010,109.583946 1293.994019,106.021461 
	C1294.077515,97.358444 1294.160889,88.695419 1295.146362,80.067802 
	C1299.967529,79.824608 1304.787720,79.563683 1309.609863,79.341766 
	C1321.110718,78.812462 1330.965576,80.864807 1336.992920,92.580864 
	C1341.454102,101.253044 1348.062256,108.682175 1356.377075,114.076096 
	C1358.328491,115.341972 1361.764648,115.729996 1363.957642,114.949242 
	C1370.659302,112.563324 1370.851440,105.180893 1366.390747,99.426468 
	C1360.665771,92.041107 1355.189575,84.462807 1349.504517,76.831177 
	C1352.321045,74.870499 1354.286377,73.323853 1356.414673,72.049667 
	C1371.280884,63.149445 1373.779297,40.068367 1361.324829,27.013817 
	C1353.660522,18.980190 1344.308228,17.546200 1333.624756,17.233377 
	C1319.107544,17.217796 1304.590210,17.202215 1289.253662,17.072121 
M669.442139,25.049473 
	C663.927185,22.592361 658.615784,19.237974 652.840576,17.928007 
	C646.949097,16.591648 640.602661,17.122057 634.453979,17.087572 
	C622.463684,17.020321 610.469971,16.995953 598.482117,17.206341 
	C588.511047,17.381334 585.145081,20.958055 584.998291,30.938869 
	C584.914978,36.601257 584.893616,42.264866 584.885254,47.927986 
	C584.856628,67.414520 584.852600,86.901093 584.823486,106.387627 
	C584.816895,110.797951 586.173889,114.095047 590.983765,115.277542 
	C598.764648,117.190430 603.667664,113.470772 603.886047,104.890961 
	C604.096313,96.633636 603.931580,88.366760 603.931580,80.045898 
	C612.755798,80.045898 620.905334,80.199020 629.045349,79.987709 
	C633.826721,79.863579 637.344055,81.769096 640.209900,85.353592 
	C641.664490,87.172958 643.180054,88.943405 644.647461,90.752686 
	C650.199341,97.597992 655.554077,104.614883 661.348511,111.247955 
	C666.042175,116.620972 671.954834,117.300522 676.324829,113.636963 
	C680.601624,110.051453 680.423462,104.937218 675.803833,99.090355 
	C674.978271,98.045555 674.100464,97.042313 673.259583,96.009506 
	C668.338562,89.965691 663.421326,83.918762 658.886841,78.345009 
	C664.048096,73.796379 669.600464,69.994431 673.737732,65.016380 
	C681.044495,56.224659 681.055115,36.656334 669.442139,25.049473 
M1006.242859,87.261230 
	C1016.543213,95.909767 1026.728760,104.700516 1037.192139,113.147095 
	C1042.455322,117.395897 1047.369019,116.952454 1050.884033,112.735405 
	C1054.461182,108.443787 1054.025024,103.966354 1049.112793,99.156975 
	C1044.482910,94.623917 1039.615112,90.328621 1034.763550,86.028496 
	C1025.227539,77.576561 1015.630371,69.193741 1005.858398,60.606544 
	C1014.666565,54.526714 1023.041504,48.820656 1031.333130,42.996059 
	C1036.770752,39.176357 1042.242065,35.376133 1047.406860,31.206282 
	C1051.056396,28.259661 1051.828857,24.216906 1049.461304,19.985657 
	C1047.040405,15.658931 1043.001221,14.837975 1038.679688,16.071171 
	C1036.039673,16.824499 1033.513062,18.302637 1031.212524,19.863400 
	C1018.564941,28.444126 1006.022705,37.179672 993.403809,45.802910 
	C986.364563,50.613327 979.246887,55.308907 971.526855,60.483658 
	C971.526855,58.170265 971.541992,56.849319 971.524536,55.528801 
	C971.383545,44.877106 971.545105,34.208813 970.970581,23.580385 
	C970.648376,17.620605 965.973022,14.687314 960.071533,15.658057 
	C954.432495,16.585642 952.089539,19.891268 952.074524,27.498501 
	C952.024292,52.993362 952.050903,78.488380 952.070068,103.983337 
	C952.071045,105.309013 952.165588,106.654861 952.405396,107.956566 
	C953.365784,113.171501 956.559753,115.855621 961.657715,115.834526 
	C967.220215,115.811508 970.526611,113.225098 971.005005,107.675102 
	C971.547058,101.387344 971.272888,95.028358 971.838440,88.743980 
	C972.041992,86.482216 973.082031,83.660492 974.732727,82.286850 
	C979.163818,78.599457 984.130981,75.556221 989.099243,72.108658 
	C994.806335,77.135147 1000.270874,81.947968 1006.242859,87.261230 
M805.046692,86.378601 
	C794.469421,66.622223 783.984314,46.815609 773.263794,27.137238 
	C769.603149,20.417767 764.061646,15.511353 756.064453,15.174524 
	C748.245972,14.845226 743.729126,20.119776 740.328796,26.385981 
	C732.817688,40.227798 725.343689,54.090374 717.957642,67.999237 
	C712.047546,79.128654 706.123169,90.256424 700.533997,101.547745 
	C697.719788,107.233124 699.181824,112.233978 703.522888,114.590126 
	C708.465332,117.272644 713.754395,115.799255 717.212036,110.430138 
	C719.632812,106.671143 721.834167,102.743248 723.806274,98.730011 
	C726.227905,93.802307 729.894409,91.841942 735.399963,91.932594 
	C749.724792,92.168472 764.057373,92.125549 778.383850,91.948822 
	C783.242371,91.888893 786.635193,93.424118 788.840881,97.910995 
	C790.741760,101.777847 793.133545,105.402046 795.278015,109.150818 
	C799.052124,115.748383 803.872498,117.590500 809.634521,114.606033 
	C814.495056,112.088486 815.558533,106.896484 812.343933,100.243683 
	C810.180237,95.765732 807.743713,91.419617 805.046692,86.378601 
M875.886108,32.990879 
	C886.270752,31.731565 895.514282,35.362694 904.636475,39.620903 
	C907.941772,41.163799 911.256714,42.861214 914.753601,43.773487 
	C918.947876,44.867683 922.691101,43.580601 924.963806,39.533916 
	C927.169556,35.606346 925.963013,32.121269 923.100586,29.156843 
	C921.388489,27.383839 919.457031,25.696890 917.338196,24.462049 
	C898.801636,13.659192 879.223206,12.701877 859.143982,19.045868 
	C841.149353,24.731253 829.486145,36.989552 826.294373,55.556728 
	C822.815613,75.793282 827.540527,94.093369 845.900269,105.755943 
	C866.278137,118.700470 888.304443,119.290794 910.388855,110.344910 
	C915.686279,108.199081 920.378479,104.016441 924.618591,99.999550 
	C927.325256,97.435287 926.748535,93.472580 924.348206,90.373566 
	C922.096558,87.466515 919.070862,86.269058 915.510376,87.565384 
	C912.726440,88.578926 909.881226,89.646896 907.395081,91.216331 
	C897.560974,97.424438 887.018066,99.581451 875.483521,98.067772 
	C854.123901,95.264748 841.380127,78.321625 846.201477,57.744186 
	C849.688354,42.862236 860.804443,35.926548 875.886108,32.990879 
M564.993652,25.624336 
	C563.672668,19.366301 561.558533,17.034605 555.969727,17.017801 
	C526.979492,16.930639 497.988464,16.950277 468.998383,17.086275 
	C463.500000,17.112070 460.333313,20.551170 460.074158,25.819775 
	C459.821350,30.959602 462.843231,34.635048 468.509094,34.862438 
	C478.156830,35.249638 487.826294,35.098232 497.486633,35.168198 
	C499.239197,35.180889 500.991913,35.170006 502.927490,35.170006 
	C502.927490,42.081924 502.917297,48.240639 502.929474,54.399311 
	C502.963715,71.726517 502.862885,89.055786 503.112091,106.379967 
	C503.224670,114.208740 510.152405,118.233170 517.202209,114.834183 
	C522.115784,112.465111 522.150208,107.740463 522.156494,103.187592 
	C522.185059,82.360367 522.167419,61.533085 522.166443,40.705826 
	C522.166321,38.954838 522.166382,37.203854 522.166382,35.070473 
	C533.575378,35.070473 544.220215,35.143867 554.863464,35.042553 
	C561.107056,34.983128 564.036926,32.361179 564.993652,25.624336 
z"/>
<path fill="#24B4A5" opacity="1.000000" stroke="none" 
	d="
M1241.053955,107.159134 
	C1240.717773,107.463737 1240.381714,107.768356 1239.494141,108.154495 
	C1238.640869,108.525093 1238.338989,108.814163 1238.037231,109.103226 
	C1238.037231,109.103226 1238.032837,109.020355 1237.746826,109.048080 
	C1236.998779,109.447258 1236.536743,109.818710 1236.074707,110.190155 
	C1236.074707,110.190147 1236.070801,110.098824 1235.792725,110.096306 
	C1235.021729,110.430618 1234.528564,110.767448 1234.035522,111.104279 
	C1234.035522,111.104294 1234.027100,111.021835 1233.636230,111.024612 
	C1221.845581,111.686256 1210.434204,113.032097 1199.048828,112.840149 
	C1182.687134,112.564285 1166.186157,115.086929 1149.962402,111.022202 
	C1149.962402,111.022202 1150.005249,111.007553 1149.970947,110.710648 
	C1149.549561,109.975685 1149.162476,109.537628 1148.775513,109.099571 
	C1148.775513,109.099571 1148.869995,109.080521 1148.906250,108.645111 
	C1148.960083,105.107124 1149.107056,101.998611 1148.964722,98.903389 
	C1148.751343,94.264236 1148.334961,89.634407 1148.003662,84.531883 
	C1147.998291,71.710022 1147.994263,59.356884 1148.288330,46.710106 
	C1148.687500,38.504578 1148.788696,30.592690 1148.889893,22.680790 
	C1149.403687,21.867579 1149.917358,21.054377 1151.014160,20.092026 
	C1152.043579,19.568489 1152.489990,19.194101 1152.936279,18.819698 
	C1152.936279,18.819679 1152.945312,18.909994 1153.381104,18.935471 
	C1160.217163,18.974768 1166.619507,19.086065 1173.016724,18.951353 
	C1175.364746,18.901909 1177.700439,18.270254 1180.041748,17.904179 
	C1192.453125,17.718363 1204.883301,17.060593 1217.267944,17.551226 
	C1223.218384,17.786964 1229.485962,19.308931 1234.908813,21.784342 
	C1249.543213,28.464825 1251.695679,55.206715 1237.371338,63.473309 
	C1236.556274,63.943684 1235.941895,64.761864 1235.178101,65.470215 
	C1253.681274,74.470634 1253.040771,94.573875 1243.363281,105.035309 
	C1242.564697,105.592590 1242.347412,105.913681 1242.130127,106.234772 
	C1242.130127,106.234787 1242.111206,106.112373 1241.900391,106.196457 
	C1241.477661,106.573410 1241.265747,106.866280 1241.053955,107.159134 
M1225.790405,53.036491 
	C1225.790405,53.036491 1225.573120,52.615578 1226.232544,52.521687 
	C1226.440918,51.924191 1226.649414,51.326698 1226.982788,49.954586 
	C1229.375854,42.174625 1227.759399,38.875641 1219.593262,34.828327 
	C1218.676514,34.553852 1217.760620,34.043396 1216.842896,34.040169 
	C1202.240479,33.988865 1187.637939,33.979790 1173.035767,34.049316 
	C1171.996338,34.054264 1170.960083,34.744869 1169.469482,35.654202 
	C1168.360962,37.655266 1166.522339,39.576195 1166.292114,41.673679 
	C1165.773926,46.394711 1166.052612,51.203217 1166.213623,56.764950 
	C1167.686279,57.176842 1169.155640,57.931732 1170.632080,57.945782 
	C1181.361816,58.047852 1192.093262,58.045715 1202.823242,57.955658 
	C1204.581787,57.940899 1206.335205,57.331291 1208.994751,56.962120 
	C1210.803345,56.958179 1212.655396,57.201263 1214.410034,56.891666 
	C1216.963257,56.441170 1219.446289,55.592518 1221.978394,54.998005 
	C1221.978394,54.998005 1221.921631,54.932621 1222.630615,54.965633 
	C1223.259766,54.483482 1223.889038,54.001328 1224.611694,53.519169 
	C1224.611694,53.519169 1224.626709,53.426987 1225.161621,53.533421 
	C1225.291138,53.231441 1225.420654,52.929462 1225.790405,53.036491 
M1165.424805,75.552719 
	C1165.295288,81.956497 1165.112549,88.360252 1165.109253,94.764091 
	C1165.108887,95.496323 1166.113159,96.229073 1166.773071,96.817184 
	C1166.773071,96.817184 1166.939209,96.906570 1167.512207,97.539490 
	C1167.984985,97.679634 1168.457397,97.941345 1168.930420,97.942337 
	C1184.901733,97.975677 1200.873291,98.012489 1216.844238,97.939507 
	C1218.045410,97.934006 1219.242920,97.119743 1220.822754,96.150871 
	C1227.895630,94.108002 1231.032959,89.765663 1229.946045,83.225922 
	C1228.971680,77.363754 1224.167725,75.872253 1218.783813,73.713409 
	C1218.008301,73.481384 1217.233276,73.049080 1216.457031,73.046883 
	C1200.727173,73.002342 1184.996948,72.975372 1169.267578,73.071220 
	C1168.183228,73.077827 1167.104736,74.074409 1166.179321,74.786880 
	C1166.179321,74.786880 1166.039917,74.976364 1165.424805,75.552719 
z"/>
<path fill="#060606" opacity="1.000000" stroke="none" 
	d="
M669.695435,25.301805 
	C681.055115,36.656334 681.044495,56.224659 673.737732,65.016380 
	C669.600464,69.994431 664.048096,73.796379 658.886841,78.345009 
	C663.421326,83.918762 668.338562,89.965691 673.259583,96.009506 
	C674.100464,97.042313 674.978271,98.045555 675.803833,99.090355 
	C680.423462,104.937218 680.601624,110.051453 676.324829,113.636963 
	C671.954834,117.300522 666.042175,116.620972 661.348511,111.247955 
	C655.554077,104.614883 650.199341,97.597992 644.647461,90.752686 
	C643.180054,88.943405 641.664490,87.172958 640.209900,85.353592 
	C637.344055,81.769096 633.826721,79.863579 629.045349,79.987709 
	C620.905334,80.199020 612.755798,80.045898 603.931580,80.045898 
	C603.931580,88.366760 604.096313,96.633636 603.886047,104.890961 
	C603.667664,113.470772 598.764648,117.190430 590.983765,115.277542 
	C586.173889,114.095047 584.816895,110.797951 584.823486,106.387627 
	C584.852600,86.901093 584.856628,67.414520 584.885254,47.927986 
	C584.893616,42.264866 584.914978,36.601257 584.998291,30.938869 
	C585.145081,20.958055 588.511047,17.381334 598.482117,17.206341 
	C610.469971,16.995953 622.463684,17.020321 634.453979,17.087572 
	C640.602661,17.122057 646.949097,16.591648 652.840576,17.928007 
	C658.615784,19.237974 663.927185,22.592361 669.695435,25.301805 
M606.730835,61.917953 
	C619.375732,61.917492 632.021667,62.015831 644.665161,61.881973 
	C653.148987,61.792152 658.501465,57.625278 658.990295,51.162052 
	C659.737732,41.278744 657.164734,36.200836 648.778442,35.627281 
	C635.037720,34.687523 621.197266,35.091480 607.402893,35.259895 
	C606.254456,35.273914 604.229553,37.754677 604.158691,39.167015 
	C603.817078,45.971413 603.949829,52.803555 604.084534,59.622494 
	C604.099792,60.396801 605.184692,61.149975 606.730835,61.917953 
z"/>
<path fill="#25B5A6" opacity="1.000000" stroke="none" 
	d="
M1584.036865,97.921814 
	C1590.461182,97.928833 1595.799438,94.839050 1600.562500,91.173355 
	C1606.966797,86.244423 1605.329468,77.309853 1597.533691,75.397957 
	C1591.146851,73.831642 1584.384888,73.745293 1577.776489,73.142700 
	C1566.018799,72.070572 1554.196899,71.517487 1542.503540,69.975807 
	C1531.124390,68.475533 1524.251953,61.809792 1522.872437,52.424328 
	C1520.847778,38.649639 1525.096802,28.462639 1535.809326,23.328392 
	C1543.669189,19.561350 1551.735474,16.182129 1560.921997,16.779188 
	C1564.206421,16.992657 1567.603394,15.046341 1570.930664,15.106419 
	C1582.092041,15.307952 1593.099365,16.699694 1603.829590,22.010609 
	C1606.882568,23.666544 1609.504272,24.791603 1612.125854,25.916655 
	C1612.125854,25.916645 1612.032349,25.952509 1612.057373,26.270514 
	C1613.458252,27.673698 1614.833984,28.758879 1616.209717,29.844063 
	C1616.209717,29.844067 1616.110107,29.948292 1616.083496,30.308788 
	C1616.466553,33.856941 1616.876221,37.044594 1617.285767,40.232246 
	C1617.285767,40.232250 1617.297241,40.099197 1617.013184,40.214912 
	C1616.487061,40.889191 1616.244873,41.447754 1616.002686,42.006317 
	C1616.002686,42.006321 1616.000000,42.000000 1615.698608,42.002716 
	C1615.072510,42.425777 1614.747681,42.846115 1614.422852,43.266441 
	C1609.977783,45.460133 1606.059082,43.809822 1602.208862,41.605297 
	C1584.850708,31.666254 1566.786377,31.792645 1548.340332,37.916946 
	C1544.678101,39.132858 1541.664185,41.151398 1541.909424,45.652752 
	C1542.100220,49.153336 1546.336426,53.225445 1550.449829,53.580429 
	C1557.063110,54.151142 1563.736938,54.135944 1570.319458,54.920353 
	C1581.908691,56.301373 1593.553833,57.574867 1604.977295,59.877441 
	C1615.273438,61.952770 1621.474487,69.007858 1622.735229,79.532013 
	C1624.000244,90.090836 1622.628906,99.925705 1611.476562,106.031395 
	C1609.765137,106.245132 1608.710938,106.239540 1607.845825,106.641006 
	C1597.949951,111.232185 1587.666626,113.970924 1576.663330,114.095558 
	C1572.784546,114.139488 1568.917603,115.225441 1565.045166,115.835625 
	C1551.604614,115.289322 1538.931030,112.274239 1527.709961,104.422783 
	C1523.959717,101.798759 1522.119873,98.366592 1522.984131,93.827599 
	C1523.756958,89.769585 1526.607178,87.746552 1530.906738,87.504257 
	C1540.873169,91.503448 1550.211792,96.105492 1560.080078,98.149712 
	C1567.722046,99.732719 1576.026733,98.116081 1584.036865,97.921814 
z"/>
<path fill="#24B4A5" opacity="1.000000" stroke="none" 
	d="
M1275.224243,29.075468 
	C1276.590210,20.246778 1279.408936,17.835087 1289.977783,17.389484 
	C1305.165894,17.796146 1319.629883,17.885448 1334.093872,17.974749 
	C1344.308228,17.546200 1353.660522,18.980190 1361.324829,27.013817 
	C1373.779297,40.068367 1371.280884,63.149445 1356.414673,72.049667 
	C1354.286377,73.323853 1352.321045,74.870499 1349.504517,76.831177 
	C1355.189575,84.462807 1360.665771,92.041107 1366.390747,99.426468 
	C1370.851440,105.180893 1370.659302,112.563324 1363.957642,114.949242 
	C1361.764648,115.729996 1358.328491,115.341972 1356.377075,114.076096 
	C1348.062256,108.682175 1341.454102,101.253044 1336.992920,92.580864 
	C1330.965576,80.864807 1321.110718,78.812462 1309.609863,79.341766 
	C1304.787720,79.563683 1299.967529,79.824608 1294.344727,80.291153 
	C1293.633789,89.321442 1293.724609,98.128372 1293.815430,106.935310 
	C1292.260010,109.583946 1291.118164,114.033211 1289.062988,114.505173 
	C1284.826538,115.478050 1279.530396,116.666939 1276.396118,111.064247 
	C1276.427124,106.834076 1276.042725,103.242287 1276.033325,99.649513 
	C1275.976196,77.883408 1276.022705,56.117027 1275.970947,34.350895 
	C1275.966797,32.591835 1275.484375,30.833918 1275.224243,29.075468 
M1298.522217,35.935383 
	C1294.689941,37.314785 1294.185913,40.642658 1294.098145,43.978844 
	C1293.941772,49.918545 1294.040405,55.864952 1294.531982,62.491158 
	C1309.084229,62.633343 1323.636475,62.793312 1338.189087,62.853271 
	C1338.776611,62.855690 1339.367920,61.912895 1340.532837,61.063511 
	C1344.692871,60.363918 1347.944336,57.997879 1348.630859,53.984398 
	C1349.986816,46.057163 1350.672852,39.437012 1339.727783,34.669170 
	C1339.279419,34.479874 1338.831787,34.127350 1338.382446,34.125103 
	C1326.196899,34.064323 1314.011108,34.006203 1301.826050,34.074337 
	C1300.897949,34.079525 1299.974976,35.021873 1298.522217,35.935383 
z"/>
<path fill="#24B4A5" opacity="1.000000" stroke="none" 
	d="
M100.841225,42.994129 
	C102.832352,59.285431 96.176163,70.664871 80.548500,77.368729 
	C86.003975,84.165657 91.190132,90.564644 96.293976,97.028625 
	C97.612541,98.698586 98.873871,100.473816 99.807076,102.374680 
	C101.431496,105.683517 103.861328,109.075867 99.485901,112.356628 
	C94.735611,115.918480 88.475929,116.554726 85.059456,112.694168 
	C79.355339,106.248596 74.294960,99.237282 68.853668,92.553627 
	C65.818420,88.825363 62.561417,85.277634 58.981144,81.114624 
	C56.342228,80.272972 54.126522,79.965240 51.910816,79.657509 
	C45.563606,79.754829 39.216396,79.852150 32.160355,79.743019 
	C30.013426,79.759232 28.575335,79.981888 27.137241,80.204552 
	C27.137241,80.204552 27.037777,80.138962 26.666700,80.170944 
	C25.862839,81.674431 25.074368,83.141563 25.056164,84.618187 
	C24.953600,92.937683 25.036194,101.259460 25.055655,109.580460 
	C23.768816,111.083786 22.742035,113.477570 21.151787,113.942009 
	C12.572518,116.447594 8.238702,115.649147 7.396404,106.007797 
	C8.110321,78.347260 8.525747,51.381355 8.941174,24.415449 
	C10.419827,17.561499 16.229242,17.974947 21.979498,17.391758 
	C36.466030,17.798700 50.229858,17.890257 64.283447,18.279854 
	C69.642136,19.088551 74.746475,19.380718 79.766251,20.194517 
	C82.625557,20.658066 85.346756,21.973419 88.130150,22.905201 
	C88.130150,22.905201 88.030388,22.951788 88.081253,23.269989 
	C89.126587,24.031155 90.121063,24.474121 91.115532,24.917088 
	C91.115532,24.917086 91.041077,24.962885 91.150314,25.170210 
	C91.566719,25.553196 91.873871,25.728857 92.181030,25.904520 
	C92.181030,25.904520 92.075211,25.928312 92.176125,26.139019 
	C92.586876,26.543911 92.896713,26.738094 93.206551,26.932278 
	C93.801033,27.590509 94.395515,28.248745 95.053665,29.572077 
	C97.025299,34.489494 98.933258,38.741810 100.841225,42.994129 
M26.007429,39.261299 
	C26.024614,46.184708 26.041800,53.108116 26.354101,60.519444 
	C26.906797,61.023689 27.459496,61.527939 28.601549,62.620701 
	C41.862595,62.724251 55.123596,62.839771 68.384850,62.888905 
	C68.932556,62.890930 69.482567,62.270824 70.293892,61.784325 
	C70.293892,61.784325 70.565300,61.924309 71.100296,61.812443 
	C71.383156,61.598221 71.666023,61.383999 72.515549,60.974560 
	C72.913254,60.961212 73.310959,60.947865 74.213066,60.800346 
	C74.463684,60.571507 74.714302,60.342667 75.309387,59.911915 
	C75.309387,59.911915 75.707916,59.936394 76.213745,59.792961 
	C76.464905,59.560463 76.716057,59.327965 77.514580,58.656384 
	C85.284882,50.822502 83.078926,39.632042 72.582024,34.799511 
	C72.320107,34.604549 72.058884,34.240040 71.796165,34.238953 
	C58.609493,34.184475 45.422680,34.153908 32.235939,34.168129 
	C31.831879,34.168564 31.428360,34.669968 30.406462,35.246998 
	C29.190199,36.510521 27.973936,37.774040 26.007429,39.261299 
z"/>
<path fill="#0A0A0A" opacity="1.000000" stroke="none" 
	d="
M1005.989136,87.011017 
	C1000.270874,81.947968 994.806335,77.135147 989.099243,72.108658 
	C984.130981,75.556221 979.163818,78.599457 974.732727,82.286850 
	C973.082031,83.660492 972.041992,86.482216 971.838440,88.743980 
	C971.272888,95.028358 971.547058,101.387344 971.005005,107.675102 
	C970.526611,113.225098 967.220215,115.811508 961.657715,115.834526 
	C956.559753,115.855621 953.365784,113.171501 952.405396,107.956566 
	C952.165588,106.654861 952.071045,105.309013 952.070068,103.983337 
	C952.050903,78.488380 952.024292,52.993362 952.074524,27.498501 
	C952.089539,19.891268 954.432495,16.585642 960.071533,15.658057 
	C965.973022,14.687314 970.648376,17.620605 970.970581,23.580385 
	C971.545105,34.208813 971.383545,44.877106 971.524536,55.528801 
	C971.541992,56.849319 971.526855,58.170265 971.526855,60.483658 
	C979.246887,55.308907 986.364563,50.613327 993.403809,45.802910 
	C1006.022705,37.179672 1018.564941,28.444126 1031.212524,19.863400 
	C1033.513062,18.302637 1036.039673,16.824499 1038.679688,16.071171 
	C1043.001221,14.837975 1047.040405,15.658931 1049.461304,19.985657 
	C1051.828857,24.216906 1051.056396,28.259661 1047.406860,31.206282 
	C1042.242065,35.376133 1036.770752,39.176357 1031.333130,42.996059 
	C1023.041504,48.820656 1014.666565,54.526714 1005.858398,60.606544 
	C1015.630371,69.193741 1025.227539,77.576561 1034.763550,86.028496 
	C1039.615112,90.328621 1044.482910,94.623917 1049.112793,99.156975 
	C1054.025024,103.966354 1054.461182,108.443787 1050.884033,112.735405 
	C1047.369019,116.952454 1042.455322,117.395897 1037.192139,113.147095 
	C1026.728760,104.700516 1016.543213,95.909767 1005.989136,87.011017 
z"/>
<path fill="#080808" opacity="1.000000" stroke="none" 
	d="
M805.237915,86.696571 
	C807.743713,91.419617 810.180237,95.765732 812.343933,100.243683 
	C815.558533,106.896484 814.495056,112.088486 809.634521,114.606033 
	C803.872498,117.590500 799.052124,115.748383 795.278015,109.150818 
	C793.133545,105.402046 790.741760,101.777847 788.840881,97.910995 
	C786.635193,93.424118 783.242371,91.888893 778.383850,91.948822 
	C764.057373,92.125549 749.724792,92.168472 735.399963,91.932594 
	C729.894409,91.841942 726.227905,93.802307 723.806274,98.730011 
	C721.834167,102.743248 719.632812,106.671143 717.212036,110.430138 
	C713.754395,115.799255 708.465332,117.272644 703.522888,114.590126 
	C699.181824,112.233978 697.719788,107.233124 700.533997,101.547745 
	C706.123169,90.256424 712.047546,79.128654 717.957642,67.999237 
	C725.343689,54.090374 732.817688,40.227798 740.328796,26.385981 
	C743.729126,20.119776 748.245972,14.845226 756.064453,15.174524 
	C764.061646,15.511353 769.603149,20.417767 773.263794,27.137238 
	C783.984314,46.815609 794.469421,66.622223 805.237915,86.696571 
M752.123169,44.648972 
	C747.189087,54.084675 742.255005,63.520378 737.119995,73.340225 
	C750.497864,73.340225 763.092590,73.340225 776.329285,73.340225 
	C769.669128,60.797752 763.300659,48.804424 756.570557,36.130226 
	C754.918945,39.319756 753.706238,41.661552 752.123169,44.648972 
z"/>
<path fill="#24B4A5" opacity="1.000000" stroke="none" 
	d="
M268.570343,92.263573 
	C265.103729,97.634224 261.494324,102.919167 258.206024,108.396866 
	C253.930222,115.519539 249.254181,117.112099 242.735947,113.821991 
	C238.274231,111.569916 238.057068,107.900879 239.218231,104.133736 
	C240.429749,100.203354 242.341476,96.447243 244.273788,92.787437 
	C255.516754,71.493202 266.821167,50.231110 278.203125,29.010893 
	C279.759735,26.108746 281.622772,23.294149 283.758362,20.792854 
	C292.293152,10.796419 306.086517,14.939257 312.615479,26.610622 
	C319.086487,38.178402 325.339630,49.869282 331.595001,61.556129 
	C338.086731,73.684547 344.563507,85.823357 350.815277,98.075775 
	C352.102356,100.598282 352.477356,103.619133 353.077911,106.451599 
	C354.095184,111.249565 351.614807,113.859894 347.330170,115.345665 
	C342.882019,116.888145 339.376709,115.122551 336.801575,111.847717 
	C334.831665,109.342522 333.542755,106.257156 332.189362,103.319969 
	C327.610596,93.382812 319.221252,90.912079 309.265869,91.424400 
	C307.109009,91.535393 304.957672,91.753868 302.050842,91.607941 
	C291.421326,91.200005 281.544739,91.069275 271.668121,91.069923 
	C270.635498,91.069992 269.602936,91.847023 268.570343,92.263573 
M277.617065,74.635422 
	C289.528748,74.735725 301.440338,74.849236 313.352234,74.893967 
	C313.897888,74.896019 314.445862,74.279465 315.132294,73.205986 
	C309.247406,61.645638 303.362549,50.085289 297.043518,37.672081 
	C289.836060,49.744160 283.301605,60.645157 276.859528,71.600449 
	C276.515656,72.185242 276.949799,73.227531 277.617065,74.635422 
z"/>
<path fill="#25B4A5" opacity="1.000000" stroke="none" 
	d="
M219.067230,110.577019 
	C219.067230,110.577019 219.177597,110.812584 218.766098,110.951851 
	C217.908951,111.738251 217.463303,112.385384 217.017654,113.032516 
	C217.017654,113.032516 217.004242,112.996101 216.548233,113.002411 
	C189.027893,113.030815 161.963562,113.052917 134.899231,113.075012 
	C134.899231,113.075012 134.967636,113.026337 134.789612,112.799637 
	C134.214157,112.435081 133.816742,112.297218 133.419327,112.159363 
	C133.419327,112.159363 133.195328,112.243454 132.979431,111.926033 
	C132.458466,111.432281 132.153381,111.255943 131.848297,111.079613 
	C131.848297,111.079613 131.952774,111.052505 131.947296,110.684189 
	C131.292252,106.769791 130.075897,103.222443 130.083832,99.677841 
	C130.141251,74.035042 130.446075,48.392807 130.672577,22.750391 
	C130.672577,22.750391 130.711960,23.003996 130.991364,22.819202 
	C131.500122,22.068190 131.729492,21.501970 131.958847,20.935749 
	C131.958847,20.935749 131.997086,20.997150 132.289490,20.957729 
	C132.937561,20.472061 133.293243,20.025812 133.648941,19.579567 
	C133.648941,19.579567 133.716415,19.574171 133.981018,19.624222 
	C134.501480,19.419714 134.757339,19.165152 135.013184,18.910591 
	C135.013184,18.910589 135.198303,18.750879 135.776367,18.830750 
	C138.568558,18.608654 140.782669,18.306688 143.465637,18.003029 
	C164.517456,18.001144 185.100449,18.020691 205.683273,17.965376 
	C207.434570,17.960670 209.184540,17.456724 210.935120,17.184704 
	C217.194412,17.459452 219.735184,19.540039 220.348404,24.892981 
	C220.967468,30.296883 218.832275,33.079868 211.984619,34.597359 
	C192.125473,34.198006 172.951370,34.082932 153.777176,34.062611 
	C152.762527,34.061535 151.747009,34.862076 150.731903,35.289436 
	C149.821075,37.107525 148.265747,38.877106 148.124542,40.753117 
	C147.753891,45.677948 147.999405,50.649158 147.999405,56.394096 
	C154.304749,56.394096 160.210098,56.393330 166.115433,56.394264 
	C176.740250,56.395950 187.366882,56.285076 197.988983,56.456291 
	C202.295654,56.525715 206.529831,57.637169 207.614349,62.634056 
	C208.643478,67.375778 207.523514,71.544739 201.981964,73.582390 
	C184.239120,73.211800 167.161102,73.103691 150.082947,73.067101 
	C149.374237,73.065575 148.664108,73.733162 147.700928,74.400261 
	C147.335709,81.183311 147.142105,87.655922 147.205856,94.126007 
	C147.214874,95.041771 148.477310,95.945198 149.159607,96.854332 
	C149.159607,96.854332 149.124405,96.970703 149.344345,97.272476 
	C151.372650,97.717850 153.180817,97.982956 154.989426,97.986198 
	C172.484177,98.017601 189.979004,98.009399 207.473801,98.000145 
	C210.000793,97.998810 212.527771,97.932106 215.054749,97.895653 
	C215.626236,98.033020 216.197723,98.170380 216.924835,98.974266 
	C217.742722,103.286201 218.404968,106.931610 219.067230,110.577019 
z"/>
<path fill="#24B4A5" opacity="1.000000" stroke="none" 
	d="
M1428.065308,91.810989 
	C1426.402344,91.847038 1424.733276,91.991722 1423.077759,91.897469 
	C1419.114380,91.671799 1416.512573,93.314026 1414.803589,96.957008 
	C1412.760010,101.313004 1410.654175,105.697372 1408.023193,109.707260 
	C1403.673828,116.336815 1401.898682,115.455925 1394.820190,114.750252 
	C1389.589966,114.228813 1388.177490,106.262764 1391.007935,100.598488 
	C1394.721069,93.167923 1398.593994,85.815071 1402.509033,78.488007 
	C1411.824951,61.053101 1421.192139,43.645554 1430.567993,26.242785 
	C1433.984985,19.900719 1438.727661,15.119551 1446.399536,14.962779 
	C1453.814941,14.811245 1458.851807,18.967936 1462.232056,25.212563 
	C1470.358887,40.226055 1478.370483,55.301895 1486.451538,70.340149 
	C1491.774902,80.246254 1497.190063,90.103333 1502.459106,100.038086 
	C1504.640625,104.151291 1505.912476,108.489761 1502.297119,112.499702 
	C1497.211304,118.140274 1487.714355,115.677727 1484.840698,108.381691 
	C1483.273682,104.402969 1481.195923,100.503716 1478.694092,97.041344 
	C1474.100708,90.684166 1466.934814,91.565636 1460.268311,91.448463 
	C1458.116943,91.410660 1455.958740,91.754585 1453.050781,91.608566 
	C1444.220459,91.465828 1436.142822,91.638405 1428.065308,91.810989 
M1428.554199,74.550079 
	C1440.901978,74.687653 1453.249634,74.826851 1465.597778,74.916618 
	C1465.659546,74.917076 1465.726440,74.218102 1465.955322,73.125526 
	C1463.683472,68.566818 1461.535034,63.941338 1459.111694,59.464653 
	C1455.204468,52.246742 1451.116089,45.126923 1446.666992,37.185192 
	C1440.959839,47.735809 1435.661377,57.402348 1430.513794,67.148537 
	C1429.402100,69.253632 1428.833374,71.645561 1428.554199,74.550079 
z"/>
<path fill="#0A0A0A" opacity="1.000000" stroke="none" 
	d="
M875.437683,33.005135 
	C860.804443,35.926548 849.688354,42.862236 846.201477,57.744186 
	C841.380127,78.321625 854.123901,95.264748 875.483521,98.067772 
	C887.018066,99.581451 897.560974,97.424438 907.395081,91.216331 
	C909.881226,89.646896 912.726440,88.578926 915.510376,87.565384 
	C919.070862,86.269058 922.096558,87.466515 924.348206,90.373566 
	C926.748535,93.472580 927.325256,97.435287 924.618591,99.999550 
	C920.378479,104.016441 915.686279,108.199081 910.388855,110.344910 
	C888.304443,119.290794 866.278137,118.700470 845.900269,105.755943 
	C827.540527,94.093369 822.815613,75.793282 826.294373,55.556728 
	C829.486145,36.989552 841.149353,24.731253 859.143982,19.045868 
	C879.223206,12.701877 898.801636,13.659192 917.338196,24.462049 
	C919.457031,25.696890 921.388489,27.383839 923.100586,29.156843 
	C925.963013,32.121269 927.169556,35.606346 924.963806,39.533916 
	C922.691101,43.580601 918.947876,44.867683 914.753601,43.773487 
	C911.256714,42.861214 907.941772,41.163799 904.636475,39.620903 
	C895.514282,35.362694 886.270752,31.731565 875.437683,33.005135 
z"/>
<path fill="#040404" opacity="1.000000" stroke="none" 
	d="
M564.997314,26.029827 
	C564.036926,32.361179 561.107056,34.983128 554.863464,35.042553 
	C544.220215,35.143867 533.575378,35.070473 522.166382,35.070473 
	C522.166382,37.203854 522.166321,38.954838 522.166443,40.705826 
	C522.167419,61.533085 522.185059,82.360367 522.156494,103.187592 
	C522.150208,107.740463 522.115784,112.465111 517.202209,114.834183 
	C510.152405,118.233170 503.224670,114.208740 503.112091,106.379967 
	C502.862885,89.055786 502.963715,71.726517 502.929474,54.399311 
	C502.917297,48.240639 502.927490,42.081924 502.927490,35.170006 
	C500.991913,35.170006 499.239197,35.180889 497.486633,35.168198 
	C487.826294,35.098232 478.156830,35.249638 468.509094,34.862438 
	C462.843231,34.635048 459.821350,30.959602 460.074158,25.819775 
	C460.333313,20.551170 463.500000,17.112070 468.998383,17.086275 
	C497.988464,16.950277 526.979492,16.930639 555.969727,17.017801 
	C561.558533,17.034605 563.672668,19.366301 564.997314,26.029827 
z"/>
<path fill="#24B4A5" opacity="1.000000" stroke="none" 
	d="
M1689.850586,96.998795 
	C1694.294678,97.081184 1698.738770,97.163589 1703.675781,97.560608 
	C1706.230591,98.401497 1708.292236,98.927780 1710.354004,99.454056 
	C1710.354004,99.454056 1710.435669,99.553093 1710.341064,100.022957 
	C1710.546143,104.053268 1710.845581,107.613716 1711.145142,111.174156 
	C1711.145142,111.174156 1711.109985,111.086342 1710.887451,111.184570 
	C1710.499023,111.610558 1710.333130,111.938301 1710.167358,112.266060 
	C1710.167358,112.266068 1710.131226,112.146790 1709.921265,112.200134 
	C1709.471191,112.514061 1709.231079,112.774651 1708.990845,113.035217 
	C1708.990845,113.035210 1708.815918,113.210327 1708.184326,113.137787 
	C1688.509644,113.089638 1669.466675,113.114021 1650.423584,113.138412 
	C1650.423584,113.138405 1650.198853,113.235611 1649.966553,112.912735 
	C1649.393066,112.470894 1649.051636,112.351936 1648.710327,112.232979 
	C1648.710327,112.232986 1648.820679,112.192352 1648.759888,111.960526 
	C1648.389038,111.527626 1648.078979,111.326546 1647.768921,111.125458 
	C1647.768921,111.125450 1647.877197,111.104561 1647.906494,110.736954 
	C1647.909668,107.054352 1647.883301,103.739349 1647.857056,100.424347 
	C1648.218750,99.928627 1648.580322,99.432899 1649.607666,98.930939 
	C1651.530640,98.581451 1652.788208,98.238182 1654.045654,97.894943 
	C1658.657104,97.549965 1663.268555,97.204979 1668.709961,96.841019 
	C1670.025513,95.886650 1670.930786,94.953117 1670.934937,94.015526 
	C1671.018433,75.389725 1671.033813,56.763203 1670.899780,38.138062 
	C1670.892578,37.121593 1669.464966,36.115341 1668.698486,35.104305 
	C1664.058838,35.078888 1659.409424,35.230103 1654.781738,34.981087 
	C1649.603271,34.702435 1646.537231,31.777632 1646.059082,27.180092 
	C1645.504028,21.842949 1647.753052,18.768095 1654.034424,17.471718 
	C1672.484375,18.154694 1690.246460,18.582405 1708.229492,19.269030 
	C1709.087891,19.472155 1709.725464,19.416365 1710.362915,19.360580 
	C1710.362915,19.360584 1710.494263,19.491680 1710.382568,19.996342 
	C1710.554443,24.107918 1710.837891,27.714828 1711.121338,31.321751 
	C1710.704834,31.887785 1710.288208,32.453808 1709.140625,33.037018 
	C1702.603027,33.715092 1696.796509,34.375973 1690.989990,35.036861 
	C1690.989990,35.036865 1690.672729,35.161446 1690.080933,35.174137 
	C1688.994507,36.440140 1688.075439,37.691246 1688.068970,38.947098 
	C1687.975464,56.973862 1687.966187,75.001511 1688.084351,93.028023 
	C1688.093018,94.355415 1689.235229,95.675385 1689.850586,96.998795 
z"/>
<path fill="#24B4A5" opacity="1.000000" stroke="none" 
	d="
M1759.041382,94.989922 
	C1759.349976,95.093796 1759.601074,95.276649 1759.986450,96.148819 
	C1763.333618,97.174118 1766.477783,97.803139 1769.646362,97.968712 
	C1788.176880,98.937057 1806.834106,96.029762 1825.276489,99.789337 
	C1825.276489,99.789337 1825.171143,99.887505 1825.220459,100.101440 
	C1825.582397,100.520416 1825.895142,100.725449 1826.207886,100.930496 
	C1826.207886,100.930511 1826.119507,100.856239 1826.099976,101.296936 
	C1826.109497,104.885666 1826.138550,108.033699 1826.167480,111.181732 
	C1826.167603,111.181732 1826.102661,111.081299 1825.891357,111.190056 
	C1825.524048,111.626114 1825.368286,111.953423 1825.212402,112.280731 
	C1825.212402,112.280731 1825.170654,112.173737 1824.946045,112.238991 
	C1824.521729,112.608162 1824.322144,112.912071 1824.122559,113.216003 
	C1824.122559,113.216019 1824.074097,113.099373 1823.645508,113.081207 
	C1797.806763,113.046959 1772.396606,113.030891 1746.750366,112.747017 
	C1745.584839,112.453438 1744.655151,112.427666 1743.725586,112.401901 
	C1743.725586,112.401901 1743.810059,112.270035 1743.720459,112.022629 
	C1743.305664,111.631073 1742.980225,111.486908 1742.654907,111.342735 
	C1742.654907,111.342728 1742.963867,111.003906 1742.793091,110.892990 
	C1742.289062,110.674393 1741.955811,110.566719 1741.622559,110.459045 
	C1741.622559,110.459038 1741.581177,110.378357 1741.654785,109.960800 
	C1741.142578,104.475296 1740.100952,99.411827 1740.051025,94.338615 
	C1739.854858,74.375801 1739.836792,54.408447 1740.057617,34.446152 
	C1740.118896,28.900805 1741.232178,23.367094 1741.862793,17.828045 
	C1741.862793,17.828043 1742.001831,17.954678 1742.237305,17.922688 
	C1742.982422,17.584154 1743.492188,17.277607 1744.001953,16.971050 
	C1753.256714,15.632883 1756.673218,17.675236 1757.604736,25.982533 
	C1757.208008,48.455570 1757.109619,70.227325 1757.011475,92.355827 
	C1757.688232,93.471695 1758.364746,94.230820 1759.041382,94.989922 
z"/>
<path fill="#24B4A5" opacity="1.000000" stroke="none" 
	d="
M461.147400,100.033028 
	C463.645538,103.781052 465.016815,107.549255 460.968140,111.840279 
	C460.433746,112.586098 460.282257,112.899284 460.130798,113.212471 
	C460.130798,113.212471 460.062958,113.087990 459.639954,113.075516 
	C433.806580,113.046974 408.396210,113.030899 382.750000,112.746964 
	C381.584564,112.452789 380.654938,112.426483 379.725281,112.400177 
	C379.725281,112.400177 379.837219,112.230232 379.730408,112.006439 
	C379.288544,111.688431 378.953522,111.594208 378.618500,111.499992 
	C378.618500,111.499992 378.602631,111.412804 378.596863,111.113091 
	C378.276733,110.655357 377.962402,110.497337 377.648041,110.339325 
	C377.648041,110.339325 377.842682,110.033752 377.805359,109.766525 
	C377.169403,104.765236 376.098328,100.035591 376.054016,95.296349 
	C375.862701,74.832130 375.841217,54.363701 376.060303,33.900043 
	C376.117920,28.521780 377.259277,23.155123 377.902954,17.783131 
	C378.257965,17.477139 378.613007,17.171152 379.704132,16.873676 
	C383.340698,16.878542 386.241211,16.874899 389.141693,16.871256 
	C389.141693,16.871256 388.994781,16.938362 389.063690,17.258236 
	C390.413513,20.376314 391.694458,23.174517 392.983307,26.443029 
	C392.994141,47.962933 392.978119,69.012589 393.047119,90.061966 
	C393.051239,91.324394 393.734558,92.584602 394.101837,93.845840 
	C394.888153,94.618935 395.674438,95.392029 396.863342,96.751175 
	C399.047607,97.559608 400.828583,97.968330 402.611115,97.974899 
	C416.908539,98.027588 431.209595,97.827240 445.502106,98.097382 
	C450.727539,98.196144 455.932892,99.356804 461.147400,100.033028 
z"/>
<path fill="#33BBAE" opacity="1.000000" stroke="none" 
	d="
M1741.531006,17.954147 
	C1741.232178,23.367094 1740.118896,28.900805 1740.057617,34.446152 
	C1739.836792,54.408447 1739.854858,74.375801 1740.051025,94.338615 
	C1740.100952,99.411827 1741.142578,104.475296 1741.611450,109.947762 
	C1740.438599,106.454849 1738.523071,102.569458 1738.468140,98.657990 
	C1738.139771,75.220726 1738.117065,51.776348 1738.330078,28.337421 
	C1738.361328,24.909948 1740.197998,21.498894 1741.531006,17.954147 
z"/>
<path fill="#33BBAE" opacity="1.000000" stroke="none" 
	d="
M377.570068,17.915693 
	C377.259277,23.155123 376.117920,28.521780 376.060303,33.900043 
	C375.841217,54.363701 375.862701,74.832130 376.054016,95.296349 
	C376.098328,100.035591 377.169403,104.765236 377.692322,109.908112 
	C376.520111,106.599388 374.524323,102.894157 374.473206,99.162300 
	C374.145264,75.216507 374.133789,51.263935 374.337189,27.316303 
	C374.363495,24.218964 376.225525,21.137218 377.570068,17.915693 
z"/>
<path fill="#28B9AA" opacity="1.000000" stroke="none" 
	d="
M130.388733,22.984482 
	C130.446075,48.392807 130.141251,74.035042 130.083832,99.677841 
	C130.075897,103.222443 131.292252,106.769791 131.914261,110.726868 
	C130.633347,105.956711 128.393524,100.793365 128.299637,95.591278 
	C127.919563,74.535744 128.125351,53.467606 128.319107,32.405998 
	C128.347305,29.338306 129.482147,26.280794 130.388733,22.984482 
z"/>
<path fill="#26B8AA" opacity="1.000000" stroke="none" 
	d="
M1150.100830,111.355049 
	C1166.186157,115.086929 1182.687134,112.564285 1199.048828,112.840149 
	C1210.434204,113.032097 1221.845581,111.686256 1233.670410,111.048157 
	C1227.670898,112.336624 1221.271240,114.521187 1214.817139,114.695770 
	C1197.235352,115.171379 1179.626953,114.978500 1162.037720,114.621704 
	C1158.086670,114.541550 1154.171265,112.712059 1150.100830,111.355049 
z"/>
<path fill="#28B9AA" opacity="1.000000" stroke="none" 
	d="
M135.176819,113.345856 
	C161.963562,113.052917 189.027893,113.030815 216.563446,113.014984 
	C214.868423,113.639236 212.703186,114.789284 210.535828,114.793304 
	C187.626755,114.835854 164.717178,114.721107 141.808319,114.564125 
	C139.688278,114.549599 137.572281,113.946510 135.176819,113.345856 
z"/>
<path fill="#28B9AA" opacity="1.000000" stroke="none" 
	d="
M1746.986328,113.014824 
	C1772.396606,113.030891 1797.806763,113.046959 1823.699097,113.114693 
	C1822.502930,113.727753 1820.824097,114.778526 1819.146484,114.776718 
	C1796.189087,114.751968 1773.231812,114.585007 1750.274658,114.434555 
	C1749.449097,114.429153 1748.624878,114.233749 1747.398926,113.783623 
	C1746.997803,113.440361 1746.986328,113.014824 1746.986328,113.014824 
z"/>
<path fill="#28B9AA" opacity="1.000000" stroke="none" 
	d="
M382.985809,113.014832 
	C408.396210,113.030899 433.806580,113.046974 459.699036,113.114700 
	C458.502777,113.727760 456.823975,114.778534 455.146271,114.776726 
	C432.188995,114.751984 409.231812,114.585037 386.274780,114.434593 
	C385.449280,114.429184 384.625061,114.233795 383.399139,113.783661 
	C382.998047,113.440384 382.985809,113.014832 382.985809,113.014832 
z"/>
<path fill="#26B8AA" opacity="1.000000" stroke="none" 
	d="
M1689.882080,96.531326 
	C1689.235229,95.675385 1688.093018,94.355415 1688.084351,93.028023 
	C1687.966187,75.001511 1687.975464,56.973862 1688.068970,38.947098 
	C1688.075439,37.691246 1688.994507,36.440140 1689.911621,35.155186 
	C1690.179932,42.271420 1689.926636,49.418839 1689.893311,56.567276 
	C1689.832031,69.732483 1689.899780,82.898285 1689.882080,96.531326 
z"/>
<path fill="#1FB5A7" opacity="1.000000" stroke="none" 
	d="
M1668.813965,35.553856 
	C1669.464966,36.115341 1670.892578,37.121593 1670.899780,38.138062 
	C1671.033813,56.763203 1671.018433,75.389725 1670.934937,94.015526 
	C1670.930786,94.953117 1670.025513,95.886650 1669.118652,96.859291 
	C1668.774658,76.598808 1668.852051,56.301090 1668.813965,35.553856 
z"/>
<path fill="#1FB5A7" opacity="1.000000" stroke="none" 
	d="
M1650.698975,113.455292 
	C1669.466675,113.114021 1688.509644,113.089638 1708.066162,113.101288 
	C1706.240845,113.739960 1703.906372,114.843498 1701.562744,114.863708 
	C1686.641235,114.992424 1671.717407,114.920929 1656.795044,114.803566 
	C1654.852295,114.788284 1652.914551,114.131699 1650.698975,113.455292 
z"/>
<path fill="#02AD9C" opacity="1.000000" stroke="none" 
	d="
M147.954636,74.089020 
	C148.664108,73.733162 149.374237,73.065575 150.082947,73.067101 
	C167.161102,73.103691 184.239120,73.211800 201.626648,73.575226 
	C190.705750,74.107773 179.476242,74.421211 168.244675,74.616745 
	C162.125610,74.723282 156.003082,74.629799 149.308746,74.452019 
	C148.496765,74.125061 148.236526,74.062225 147.954636,74.089020 
z"/>
<path fill="#14B2A3" opacity="1.000000" stroke="none" 
	d="
M1583.790283,97.602631 
	C1576.026733,98.116081 1567.722046,99.732719 1560.080078,98.149712 
	C1550.211792,96.105492 1540.873169,91.503448 1531.223022,87.613953 
	C1532.741943,87.565079 1534.578735,87.511833 1535.911011,88.305420 
	C1550.713135,97.123322 1566.766846,99.070045 1583.790283,97.602631 
z"/>
<path fill="#03B09F" opacity="1.000000" stroke="none" 
	d="
M1275.128540,29.530445 
	C1275.484375,30.833918 1275.966797,32.591835 1275.970947,34.350895 
	C1276.022705,56.117027 1275.976196,77.883408 1276.033325,99.649513 
	C1276.042725,103.242287 1276.427124,106.834076 1276.368286,110.693008 
	C1275.713257,109.033684 1274.997070,107.108276 1274.993530,105.181572 
	C1274.947754,80.116295 1275.003052,55.050835 1275.128540,29.530445 
z"/>
<path fill="#02AD9C" opacity="1.000000" stroke="none" 
	d="
M8.610925,24.689152 
	C8.525747,51.381355 8.110321,78.347260 7.428539,105.623863 
	C7.115959,80.883751 7.041738,55.832897 7.078280,30.782206 
	C7.081110,28.841843 7.861622,26.902611 8.610925,24.689152 
z"/>
<path fill="#14B2A3" opacity="1.000000" stroke="none" 
	d="
M1565.503662,115.917160 
	C1568.917603,115.225441 1572.784546,114.139488 1576.663330,114.095558 
	C1587.666626,113.970924 1597.949951,111.232185 1607.845825,106.641006 
	C1608.710938,106.239540 1609.765137,106.245132 1611.157227,106.082199 
	C1597.461426,114.405151 1581.952393,116.310806 1565.503662,115.917160 
z"/>
<path fill="#05AE9E" opacity="1.000000" stroke="none" 
	d="
M1825.123779,99.447586 
	C1806.834106,96.029762 1788.176880,98.937057 1769.646362,97.968712 
	C1766.477783,97.803139 1763.333618,97.174118 1760.093994,96.358719 
	C1767.752686,96.259071 1775.493408,96.718315 1783.238892,96.822861 
	C1794.332642,96.972603 1805.433350,96.715164 1816.523315,96.967041 
	C1819.354004,97.031326 1822.156006,98.358757 1825.123779,99.447586 
z"/>
<path fill="#00AF9E" opacity="1.000000" stroke="none" 
	d="
M394.109375,93.387299 
	C393.734558,92.584602 393.051239,91.324394 393.047119,90.061966 
	C392.978119,69.012589 392.994141,47.962933 393.198059,26.460987 
	C393.404877,26.008636 393.834137,26.040163 393.834167,26.040163 
	C393.906647,46.672729 393.978058,67.305298 394.053741,87.937851 
	C394.059814,89.601540 394.095154,91.265121 394.109375,93.387299 
z"/>
<path fill="#05AE9E" opacity="1.000000" stroke="none" 
	d="
M214.713089,97.651138 
	C212.527771,97.932106 210.000793,97.998810 207.473801,98.000145 
	C189.979004,98.009399 172.484177,98.017601 154.989426,97.986198 
	C153.180817,97.982956 151.372650,97.717850 149.284729,97.260529 
	C169.313431,96.920372 189.621658,96.882584 209.929886,96.890961 
	C211.410477,96.891571 212.890915,97.226913 214.713089,97.651138 
z"/>
<path fill="#05AE9E" opacity="1.000000" stroke="none" 
	d="
M461.101257,99.646561 
	C455.932892,99.356804 450.727539,98.196144 445.502106,98.097382 
	C431.209595,97.827240 416.908539,98.027588 402.611115,97.974899 
	C400.828583,97.968330 399.047607,97.559608 396.921997,97.025978 
	C414.786804,96.763924 432.997253,96.696724 451.202606,96.969139 
	C454.497437,97.018448 457.771454,98.460846 461.101257,99.646561 
z"/>
<path fill="#00AF9E" opacity="1.000000" stroke="none" 
	d="
M210.478180,17.095398 
	C209.184540,17.456724 207.434570,17.960670 205.683273,17.965376 
	C185.100449,18.020691 164.517456,18.001144 143.476746,17.798061 
	C143.019012,17.594790 143.033600,17.184616 143.033600,17.184616 
	C165.362823,17.125109 187.692032,17.065601 210.478180,17.095398 
z"/>
<path fill="#03B09F" opacity="1.000000" stroke="none" 
	d="
M1757.011230,91.999084 
	C1757.109619,70.227325 1757.208008,48.455570 1757.573486,26.373486 
	C1757.915161,47.732243 1757.989624,69.401329 1757.768555,91.535133 
	C1757.473145,91.999847 1757.011353,91.999084 1757.011230,91.999084 
z"/>
<path fill="#00AF9E" opacity="1.000000" stroke="none" 
	d="
M151.227325,35.248672 
	C151.747009,34.862076 152.762527,34.061535 153.777176,34.062611 
	C172.951370,34.082932 192.125473,34.198006 211.613159,34.554665 
	C194.346100,34.894642 176.765427,34.968472 159.184860,35.057369 
	C156.697296,35.069950 154.210114,35.155918 151.227325,35.248672 
z"/>
<path fill="#03B09F" opacity="1.000000" stroke="none" 
	d="
M1708.008423,19.010115 
	C1690.246460,18.582405 1672.484375,18.154694 1654.403564,17.474628 
	C1671.805176,17.382494 1689.525513,17.542715 1707.618896,18.129028 
	C1707.991821,18.555120 1708.008423,19.010115 1708.008423,19.010115 
z"/>
<path fill="#1FB5A7" opacity="1.000000" stroke="none" 
	d="
M1179.775757,17.568737 
	C1177.700439,18.270254 1175.364746,18.901909 1173.016724,18.951353 
	C1166.619507,19.086065 1160.217163,18.974768 1153.337036,18.924397 
	C1156.992310,18.307894 1161.111572,17.461109 1165.266357,17.218452 
	C1169.997681,16.942118 1174.760620,17.204865 1179.775757,17.568737 
z"/>
<path fill="#02AD9C" opacity="1.000000" stroke="none" 
	d="
M25.396563,109.269760 
	C25.036194,101.259460 24.953600,92.937683 25.056164,84.618187 
	C25.074368,83.141563 25.862839,81.674431 26.700878,80.122147 
	C26.899818,87.567970 26.734724,95.096062 26.460804,102.620193 
	C26.383661,104.739113 25.987375,106.846428 25.396563,109.269760 
z"/>
<path fill="#4CC3B8" opacity="1.000000" stroke="none" 
	d="
M147.700928,74.400261 
	C148.236526,74.062225 148.496765,74.125061 148.836670,74.453781 
	C148.902451,81.748863 148.866943,88.867683 148.995514,96.420425 
	C148.477310,95.945198 147.214874,95.041771 147.205856,94.126007 
	C147.142105,87.655922 147.335709,81.183311 147.700928,74.400261 
z"/>
<path fill="#26B8AA" opacity="1.000000" stroke="none" 
	d="
M1148.004883,85.000610 
	C1148.334961,89.634407 1148.751343,94.264236 1148.964722,98.903389 
	C1149.107056,101.998611 1148.960083,105.107124 1148.892822,108.691360 
	C1148.240845,103.885857 1147.550903,98.606552 1147.075439,93.307999 
	C1146.855835,90.860092 1147.055298,88.374588 1147.329956,85.444931 
	C1147.595093,84.983734 1148.004883,85.000610 1148.004883,85.000610 
z"/>
<path fill="#1FB5A7" opacity="1.000000" stroke="none" 
	d="
M1148.593750,22.952135 
	C1148.788696,30.592690 1148.687500,38.504578 1148.089966,46.716713 
	C1147.593628,47.016964 1147.196533,47.021488 1147.196533,47.021484 
	C1147.563477,39.088814 1147.930420,31.156141 1148.593750,22.952135 
z"/>
<path fill="#1FB5A7" opacity="1.000000" stroke="none" 
	d="
M87.952950,22.605726 
	C85.346756,21.973419 82.625557,20.658066 79.766251,20.194517 
	C74.746475,19.380718 69.642136,19.088551 64.276237,18.084688 
	C63.979263,17.591478 63.975819,17.200436 63.975819,17.200436 
	C72.382950,16.693733 80.499298,17.542475 87.952950,22.605726 
z"/>
<path fill="#00AF9E" opacity="1.000000" stroke="none" 
	d="
M1333.859375,17.604063 
	C1319.629883,17.885448 1305.165894,17.796146 1290.387451,17.446739 
	C1304.590210,17.202215 1319.107544,17.217796 1333.859375,17.604063 
z"/>
<path fill="#00AF9E" opacity="1.000000" stroke="none" 
	d="
M63.515064,17.118015 
	C63.975819,17.200436 63.979263,17.591478 63.986477,17.786644 
	C50.229858,17.890257 36.466030,17.798700 22.387665,17.447140 
	C35.733524,17.136621 49.393917,17.086109 63.515064,17.118015 
z"/>
<path fill="#03B09F" opacity="1.000000" stroke="none" 
	d="
M1147.113525,47.482292 
	C1147.196533,47.021488 1147.593628,47.016964 1147.791992,47.010353 
	C1147.994263,59.356884 1147.998291,71.710022 1148.003662,84.531883 
	C1148.004883,85.000610 1147.595093,84.983734 1147.390015,84.978165 
	C1147.133423,72.629425 1147.082031,60.286259 1147.113525,47.482292 
z"/>
<path fill="#00AF9E" opacity="1.000000" stroke="none" 
	d="
M269.084167,92.227921 
	C269.602936,91.847023 270.635498,91.069992 271.668121,91.069923 
	C281.544739,91.069275 291.421326,91.200005 301.612366,91.553177 
	C291.150543,91.939636 280.374268,92.065948 269.084167,92.227921 
z"/>
<path fill="#00AF9E" opacity="1.000000" stroke="none" 
	d="
M1293.904785,106.478386 
	C1293.724609,98.128372 1293.633789,89.321442 1293.893677,80.273453 
	C1294.160889,88.695419 1294.077515,97.358444 1293.904785,106.478386 
z"/>
<path fill="#00AF9E" opacity="1.000000" stroke="none" 
	d="
M1428.523926,91.888672 
	C1436.142822,91.638405 1444.220459,91.465828 1452.612305,91.553558 
	C1444.945190,91.864693 1436.963989,91.915527 1428.523926,91.888672 
z"/>
<path fill="#1FB5A7" opacity="1.000000" stroke="none" 
	d="
M100.864510,42.606548 
	C98.933258,38.741810 97.025299,34.489494 95.137253,29.829170 
	C97.067375,33.687099 98.977585,37.953033 100.864510,42.606548 
z"/>
<path fill="#26B8AA" opacity="1.000000" stroke="none" 
	d="
M1691.453613,35.108597 
	C1696.796509,34.375973 1702.603027,33.715092 1708.865967,33.087540 
	C1703.520630,33.807365 1697.718994,34.493855 1691.453613,35.108597 
z"/>
<path fill="#33BBAE" opacity="1.000000" stroke="none" 
	d="
M393.882568,25.647785 
	C393.834137,26.040163 393.404877,26.008636 393.190125,25.990679 
	C391.694458,23.174517 390.413513,20.376314 389.127960,17.209293 
	C390.725891,19.645454 392.328461,22.450430 393.882568,25.647785 
z"/>
<path fill="#26B8AA" opacity="1.000000" stroke="none" 
	d="
M1711.421143,31.071617 
	C1710.837891,27.714828 1710.554443,24.107918 1710.419922,20.081303 
	C1713.857178,23.081747 1713.636475,26.864145 1711.421143,31.071617 
z"/>
<path fill="#1FB5A7" opacity="1.000000" stroke="none" 
	d="
M1711.451416,110.948967 
	C1710.845581,107.613716 1710.546143,104.053268 1710.385254,100.069565 
	C1713.935059,103.004616 1713.510376,106.790230 1711.451416,110.948967 
z"/>
<path fill="#14B2A3" opacity="1.000000" stroke="none" 
	d="
M1617.588867,40.026039 
	C1616.876221,37.044594 1616.466553,33.856941 1616.104858,30.239944 
	C1619.064209,32.741886 1619.780884,36.054489 1617.588867,40.026039 
z"/>
<path fill="#28B9AA" opacity="1.000000" stroke="none" 
	d="
M1826.467529,110.957069 
	C1826.138550,108.033699 1826.109497,104.885666 1826.148193,101.265198 
	C1826.399902,104.105988 1826.583740,107.419197 1826.467529,110.957069 
z"/>
<path fill="#05AE9E" opacity="1.000000" stroke="none" 
	d="
M219.363113,110.323227 
	C218.404968,106.931610 217.742722,103.286201 217.061096,99.243233 
	C221.408371,101.772125 220.605072,105.904137 219.363113,110.323227 
z"/>
<path fill="#1FB5A7" opacity="1.000000" stroke="none" 
	d="
M1647.544434,100.686409 
	C1647.883301,103.739349 1647.909668,107.054352 1647.878662,110.784515 
	C1645.170166,107.923759 1645.583008,104.471649 1647.544434,100.686409 
z"/>
<path fill="#33BBAE" opacity="1.000000" stroke="none" 
	d="
M388.935974,16.569040 
	C386.241211,16.874899 383.340698,16.878542 379.944702,16.834511 
	C382.542908,16.613501 385.636597,16.440163 388.935974,16.569040 
z"/>
<path fill="#14B2A3" opacity="1.000000" stroke="none" 
	d="
M1611.947998,25.621656 
	C1609.504272,24.791603 1606.882568,23.666544 1604.112305,22.218792 
	C1606.565796,23.039616 1609.167847,24.183132 1611.947998,25.621656 
z"/>
<path fill="#28B9AA" opacity="1.000000" stroke="none" 
	d="
M142.634216,17.137623 
	C143.033600,17.184616 143.019012,17.594790 143.007904,17.799757 
	C140.782669,18.306688 138.568558,18.608654 135.891876,18.870804 
	C137.697800,18.250870 139.966324,17.670748 142.634216,17.137623 
z"/>
<path fill="#1FB5A7" opacity="1.000000" stroke="none" 
	d="
M1710.170166,99.180008 
	C1708.292236,98.927780 1706.230591,98.401497 1704.087646,97.528793 
	C1705.999756,97.756897 1707.993164,98.331429 1710.170166,99.180008 
z"/>
<path fill="#59C8BE" opacity="1.000000" stroke="none" 
	d="
M52.280693,79.815231 
	C54.126522,79.965240 56.342228,80.272972 58.731613,80.882370 
	C56.820389,80.780334 54.735477,80.376640 52.280693,79.815231 
z"/>
<path fill="#14B2A3" opacity="1.000000" stroke="none" 
	d="
M1616.087402,29.541012 
	C1614.833984,28.758879 1613.458252,27.673698 1612.081421,26.226559 
	C1613.375244,26.989056 1614.670166,28.113508 1616.087402,29.541012 
z"/>
<path fill="#1FB5A7" opacity="1.000000" stroke="none" 
	d="
M1653.837524,97.647804 
	C1652.788208,98.238182 1651.530640,98.581451 1649.847900,98.889885 
	C1650.824829,98.370270 1652.227173,97.885475 1653.837524,97.647804 
z"/>
<path fill="#05AE9E" opacity="1.000000" stroke="none" 
	d="
M1757.011475,92.355827 
	C1757.011353,91.999084 1757.473145,91.999847 1757.704102,91.999969 
	C1758.267700,92.786217 1758.600342,93.572334 1758.987305,94.674202 
	C1758.364746,94.230820 1757.688232,93.471695 1757.011475,92.355827 
z"/>
<path fill="#59C8BE" opacity="1.000000" stroke="none" 
	d="
M27.544563,80.197327 
	C28.575335,79.981888 30.013426,79.759232 31.729832,79.733322 
	C30.656057,80.016754 29.303972,80.103424 27.544563,80.197327 
z"/>
<path fill="#33BBAE" opacity="1.000000" stroke="none" 
	d="
M1746.750366,112.747017 
	C1746.986328,113.014824 1746.997803,113.440361 1747.003052,113.653137 
	C1746.035522,113.544212 1745.062622,113.222511 1743.907715,112.651352 
	C1744.655151,112.427666 1745.584839,112.453438 1746.750366,112.747017 
z"/>
<path fill="#33BBAE" opacity="1.000000" stroke="none" 
	d="
M382.750000,112.746964 
	C382.985809,113.014832 382.998047,113.440384 383.003235,113.653168 
	C382.035339,113.543915 381.062195,113.221870 379.907166,112.650009 
	C380.654938,112.426483 381.584564,112.452789 382.750000,112.746964 
z"/>
<path fill="#1FB5A7" opacity="1.000000" stroke="none" 
	d="
M90.937897,24.660526 
	C90.121063,24.474121 89.126587,24.031155 88.110085,23.223091 
	C88.978783,23.373316 89.869522,23.888641 90.937897,24.660526 
z"/>
<path fill="#28B9AA" opacity="1.000000" stroke="none" 
	d="
M217.313446,112.957535 
	C217.463303,112.385384 217.908951,111.738251 218.675552,111.045227 
	C218.534088,111.627068 218.071655,112.254814 217.313446,112.957535 
z"/>
<path fill="#26B8AA" opacity="1.000000" stroke="none" 
	d="
M1708.229492,19.269030 
	C1708.008423,19.010115 1707.991821,18.555120 1707.986328,18.327560 
	C1708.666870,18.369791 1709.352661,18.639582 1710.200684,19.134975 
	C1709.725464,19.416365 1709.087891,19.472155 1708.229492,19.269030 
z"/>
<path fill="#14B2A3" opacity="1.000000" stroke="none" 
	d="
M1614.677734,43.190994 
	C1614.747681,42.846115 1615.072510,42.425777 1615.701416,42.004395 
	C1615.647949,42.374081 1615.290283,42.744812 1614.677734,43.190994 
z"/>
<path fill="#33BBAE" opacity="1.000000" stroke="none" 
	d="
M1743.692871,16.850609 
	C1743.492188,17.277607 1742.982422,17.584154 1742.158203,17.872086 
	C1742.356934,17.479034 1742.870239,17.104595 1743.692871,16.850609 
z"/>
<path fill="#26B8AA" opacity="1.000000" stroke="none" 
	d="
M1234.341309,111.084732 
	C1234.528564,110.767448 1235.021729,110.430618 1235.835205,110.113281 
	C1235.652832,110.443588 1235.150024,110.754395 1234.341309,111.084732 
z"/>
<path fill="#26B8AA" opacity="1.000000" stroke="none" 
	d="
M1236.371338,110.148697 
	C1236.536743,109.818710 1236.998779,109.447258 1237.780029,109.072914 
	C1237.622314,109.415756 1237.145264,109.761490 1236.371338,110.148697 
z"/>
<path fill="#26B8AA" opacity="1.000000" stroke="none" 
	d="
M1148.832031,109.391037 
	C1149.162476,109.537628 1149.549561,109.975685 1149.955688,110.727844 
	C1149.612671,110.588806 1149.250610,110.135651 1148.832031,109.391037 
z"/>
<path fill="#1FB5A7" opacity="1.000000" stroke="none" 
	d="
M1152.632812,18.855286 
	C1152.489990,19.194101 1152.043579,19.568489 1151.286133,19.967068 
	C1151.426392,19.624460 1151.877930,19.257658 1152.632812,18.855286 
z"/>
<path fill="#14B2A3" opacity="1.000000" stroke="none" 
	d="
M1616.268066,41.872765 
	C1616.244873,41.447754 1616.487061,40.889191 1617.046997,40.272564 
	C1617.087646,40.722736 1616.810547,41.230976 1616.268066,41.872765 
z"/>
<path fill="#28B9AA" opacity="1.000000" stroke="none" 
	d="
M133.375763,19.665031 
	C133.293243,20.025812 132.937561,20.472061 132.258743,20.938660 
	C132.324600,20.556175 132.713593,20.153337 133.375763,19.665031 
z"/>
<path fill="#28B9AA" opacity="1.000000" stroke="none" 
	d="
M131.696625,21.071920 
	C131.729492,21.501970 131.500122,22.068190 130.952621,22.696835 
	C130.901138,22.242207 131.167786,21.725149 131.696625,21.071920 
z"/>
<path fill="#28B9AA" opacity="1.000000" stroke="none" 
	d="
M1825.467773,112.177437 
	C1825.368286,111.953423 1825.524048,111.626114 1825.948242,111.208076 
	C1826.052124,111.436279 1825.887573,111.755211 1825.467773,112.177437 
z"/>
<path fill="#28B9AA" opacity="1.000000" stroke="none" 
	d="
M133.603760,112.420181 
	C133.816742,112.297218 134.214157,112.435081 134.787460,112.841568 
	C134.571640,112.967125 134.179916,112.824059 133.603760,112.420181 
z"/>
<path fill="#1FB5A7" opacity="1.000000" stroke="none" 
	d="
M92.079605,25.649143 
	C91.873871,25.728857 91.566719,25.553196 91.154182,25.126675 
	C91.358597,25.048464 91.668396,25.221115 92.079605,25.649143 
z"/>
<path fill="#33BBAE" opacity="1.000000" stroke="none" 
	d="
M1742.738647,111.584991 
	C1742.980225,111.486908 1743.305664,111.631073 1743.652588,112.061584 
	C1743.390259,112.174377 1743.106323,112.000816 1742.738647,111.584991 
z"/>
<path fill="#28B9AA" opacity="1.000000" stroke="none" 
	d="
M134.738098,18.922478 
	C134.757339,19.165152 134.501480,19.419714 133.964386,19.653698 
	C133.943100,19.400202 134.203049,19.167284 134.738098,18.922478 
z"/>
<path fill="#28B9AA" opacity="1.000000" stroke="none" 
	d="
M460.412659,113.122284 
	C460.282257,112.899284 460.433746,112.586098 460.818451,112.143822 
	C460.932648,112.353844 460.813568,112.692963 460.412659,113.122284 
z"/>
<path fill="#1FB5A7" opacity="1.000000" stroke="none" 
	d="
M1648.831421,112.491257 
	C1649.051636,112.351936 1649.393066,112.470894 1649.875977,112.830475 
	C1649.662598,112.963898 1649.307495,112.856720 1648.831421,112.491257 
z"/>
<path fill="#1FB5A7" opacity="1.000000" stroke="none" 
	d="
M1709.269287,113.005844 
	C1709.231079,112.774651 1709.471191,112.514061 1709.982544,112.211502 
	C1710.018433,112.438499 1709.783081,112.707474 1709.269287,113.005844 
z"/>
<path fill="#28B9AA" opacity="1.000000" stroke="none" 
	d="
M1824.388672,113.143829 
	C1824.322144,112.912071 1824.521729,112.608162 1825.001221,112.254608 
	C1825.072388,112.493874 1824.863647,112.782776 1824.388672,113.143829 
z"/>
<path fill="#1FB5A7" opacity="1.000000" stroke="none" 
	d="
M93.102264,26.673809 
	C92.896713,26.738094 92.586876,26.543911 92.179764,26.084908 
	C92.387642,26.018505 92.692810,26.216923 93.102264,26.673809 
z"/>
<path fill="#1FB5A7" opacity="1.000000" stroke="none" 
	d="
M1710.431274,112.167664 
	C1710.333130,111.938301 1710.499023,111.610558 1710.934570,111.188568 
	C1711.034546,111.419312 1710.864868,111.744293 1710.431274,112.167664 
z"/>
<path fill="#1FB5A7" opacity="1.000000" stroke="none" 
	d="
M1647.850098,111.391449 
	C1648.078979,111.326546 1648.389038,111.527626 1648.740479,112.016022 
	C1648.498291,112.088043 1648.214722,111.872742 1647.850098,111.391449 
z"/>
<path fill="#33BBAE" opacity="1.000000" stroke="none" 
	d="
M378.720337,111.719452 
	C378.953522,111.594208 379.288544,111.688431 379.650146,112.069016 
	C379.335846,112.331573 379.050995,112.192749 378.720337,111.719452 
z"/>
<path fill="#28B9AA" opacity="1.000000" stroke="none" 
	d="
M131.937622,111.351089 
	C132.153381,111.255943 132.458466,111.432281 132.890106,111.846481 
	C132.686737,111.930420 132.356842,111.776489 131.937622,111.351089 
z"/>
<path fill="#33BBAE" opacity="1.000000" stroke="none" 
	d="
M1741.718994,110.684784 
	C1741.955811,110.566719 1742.289062,110.674393 1742.645996,111.068604 
	C1742.323242,111.325371 1742.038574,111.177170 1741.718994,110.684784 
z"/>
<path fill="#33BBAE" opacity="1.000000" stroke="none" 
	d="
M377.712036,110.573746 
	C377.962402,110.497337 378.276733,110.655357 378.554565,111.099976 
	C378.173767,111.318146 377.926453,111.125343 377.712036,110.573746 
z"/>
<path fill="#26B8AA" opacity="1.000000" stroke="none" 
	d="
M1238.353027,109.052490 
	C1238.338989,108.814163 1238.640869,108.525093 1239.263794,108.190094 
	C1239.279541,108.430023 1238.974121,108.715881 1238.353027,109.052490 
z"/>
<path fill="#26B8AA" opacity="1.000000" stroke="none" 
	d="
M1241.321411,107.084869 
	C1241.265747,106.866280 1241.477661,106.573410 1241.960693,106.210846 
	C1242.017334,106.430969 1241.803101,106.720779 1241.321411,107.084869 
z"/>
<path fill="#26B8AA" opacity="1.000000" stroke="none" 
	d="
M1242.403564,106.136795 
	C1242.347412,105.913681 1242.564697,105.592590 1243.072266,105.195816 
	C1243.133911,105.426353 1242.905396,105.732590 1242.403564,106.136795 
z"/>
<path fill="#05AE9E" opacity="1.000000" stroke="none" 
	d="
M1826.141113,100.640900 
	C1825.895142,100.725449 1825.582397,100.520416 1825.188965,100.036659 
	C1825.430298,99.955734 1825.752319,100.153519 1826.141113,100.640900 
z"/>
<path fill="#F8FBFB" opacity="1.000000" stroke="none" 
	d="
M1166.939209,96.906570 
	C1166.939209,96.906570 1166.773071,96.817184 1166.644043,96.422897 
	C1166.356689,89.011192 1166.198364,81.993774 1166.039917,74.976364 
	C1166.039917,74.976364 1166.179321,74.786880 1166.559814,74.580383 
	C1184.438110,74.376701 1201.935913,74.379509 1219.433838,74.382317 
	C1224.167725,75.872253 1228.971680,77.363754 1229.946045,83.225922 
	C1231.032959,89.765663 1227.895630,94.108002 1220.115356,96.371246 
	C1201.918335,96.696594 1184.428833,96.801582 1166.939209,96.906570 
z"/>
<path fill="#FBFCFC" opacity="1.000000" stroke="none" 
	d="
M1219.966187,35.634811 
	C1227.759399,38.875641 1229.375854,42.174625 1226.652832,50.480598 
	C1226.072998,51.542919 1225.822998,52.079227 1225.572998,52.615555 
	C1225.573120,52.615578 1225.790405,53.036491 1225.468262,52.902130 
	C1224.884888,52.918060 1224.711670,53.137798 1224.626709,53.426987 
	C1224.626709,53.426987 1224.611694,53.519169 1224.278687,53.605911 
	C1223.270996,54.105976 1222.596313,54.519295 1221.921631,54.932617 
	C1221.921631,54.932621 1221.978394,54.998005 1221.552490,54.982224 
	C1216.734985,55.366688 1212.343384,55.766930 1207.486328,56.172379 
	C1193.349609,56.110432 1179.678345,56.043278 1166.007080,55.976120 
	C1166.052612,51.203217 1165.773926,46.394711 1166.292114,41.673679 
	C1166.522339,39.576195 1168.360962,37.655266 1170.171875,35.364853 
	C1176.003418,35.055416 1181.133667,34.959423 1186.261353,35.030773 
	C1197.496948,35.187115 1208.731323,35.428280 1219.966187,35.634811 
z"/>
<path fill="#00AF9E" opacity="1.000000" stroke="none" 
	d="
M1166.110352,56.370537 
	C1179.678345,56.043278 1193.349609,56.110432 1207.517578,56.380341 
	C1208.014404,56.583092 1208.091064,56.996616 1208.091064,56.996613 
	C1206.335205,57.331291 1204.581787,57.940899 1202.823242,57.955658 
	C1192.093262,58.045715 1181.361816,58.047852 1170.632080,57.945782 
	C1169.155640,57.931732 1167.686279,57.176842 1166.110352,56.370537 
z"/>
<path fill="#02AD9C" opacity="1.000000" stroke="none" 
	d="
M1219.108887,74.047867 
	C1201.935913,74.379509 1184.438110,74.376701 1166.481934,74.492249 
	C1167.104736,74.074409 1168.183228,73.077827 1169.267578,73.071220 
	C1184.996948,72.975372 1200.727173,73.002342 1216.457031,73.046883 
	C1217.233276,73.049080 1218.008301,73.481384 1219.108887,74.047867 
z"/>
<path fill="#00AF9E" opacity="1.000000" stroke="none" 
	d="
M1167.225708,97.223030 
	C1184.428833,96.801582 1201.918335,96.696594 1219.925049,96.636528 
	C1219.242920,97.119743 1218.045410,97.934006 1216.844238,97.939507 
	C1200.873291,98.012489 1184.901733,97.975677 1168.930420,97.942337 
	C1168.457397,97.941345 1167.984985,97.679634 1167.225708,97.223030 
z"/>
<path fill="#00AF9E" opacity="1.000000" stroke="none" 
	d="
M1219.779785,35.231567 
	C1208.731323,35.428280 1197.496948,35.187115 1186.261353,35.030773 
	C1181.133667,34.959423 1176.003418,35.055416 1170.398438,35.096085 
	C1170.960083,34.744869 1171.996338,34.054264 1173.035767,34.049316 
	C1187.637939,33.979790 1202.240479,33.988865 1216.842896,34.040169 
	C1217.760620,34.043396 1218.676514,34.553852 1219.779785,35.231567 
z"/>
<path fill="#02AD9C" opacity="1.000000" stroke="none" 
	d="
M1165.732422,75.264542 
	C1166.198364,81.993774 1166.356689,89.011192 1166.583374,96.495087 
	C1166.113159,96.229073 1165.108887,95.496323 1165.109253,94.764091 
	C1165.112549,88.360252 1165.295288,81.956497 1165.732422,75.264542 
z"/>
<path fill="#3CC0B3" opacity="1.000000" stroke="none" 
	d="
M1208.542969,56.979370 
	C1208.091064,56.996616 1208.014404,56.583092 1207.983154,56.375134 
	C1212.343384,55.766930 1216.734985,55.366688 1221.542847,54.940041 
	C1219.446289,55.592518 1216.963257,56.441170 1214.410034,56.891666 
	C1212.655396,57.201263 1210.803345,56.958179 1208.542969,56.979370 
z"/>
<path fill="#3CC0B3" opacity="1.000000" stroke="none" 
	d="
M1222.276123,54.949123 
	C1222.596313,54.519295 1223.270996,54.105976 1224.231934,53.605919 
	C1223.889038,54.001328 1223.259766,54.483482 1222.276123,54.949123 
z"/>
<path fill="#3CC0B3" opacity="1.000000" stroke="none" 
	d="
M1225.902832,52.568611 
	C1225.822998,52.079227 1226.072998,51.542919 1226.590332,50.867908 
	C1226.649414,51.326698 1226.440918,51.924191 1225.902832,52.568611 
z"/>
<path fill="#3CC0B3" opacity="1.000000" stroke="none" 
	d="
M1224.894165,53.480202 
	C1224.711670,53.137798 1224.884888,52.918060 1225.348145,52.697624 
	C1225.420654,52.929462 1225.291138,53.231441 1224.894165,53.480202 
z"/>
<path fill="#F7F7F7" opacity="1.000000" stroke="none" 
	d="
M606.252197,61.915451 
	C605.184692,61.149975 604.099792,60.396801 604.084534,59.622494 
	C603.949829,52.803555 603.817078,45.971413 604.158691,39.167015 
	C604.229553,37.754677 606.254456,35.273914 607.402893,35.259895 
	C621.197266,35.091480 635.037720,34.687523 648.778442,35.627281 
	C657.164734,36.200836 659.737732,41.278744 658.990295,51.162052 
	C658.501465,57.625278 653.148987,61.792152 644.665161,61.881973 
	C632.021667,62.015831 619.375732,61.917492 606.252197,61.915451 
z"/>
<path fill="#FDFEFE" opacity="1.000000" stroke="none" 
	d="
M1340.382568,35.322842 
	C1350.672852,39.437012 1349.986816,46.057163 1348.630859,53.984398 
	C1347.944336,57.997879 1344.692871,60.363918 1339.783325,61.330383 
	C1324.033325,61.667690 1309.032837,61.738121 1294.032349,61.808556 
	C1294.040405,55.864952 1293.941772,49.918545 1294.098145,43.978844 
	C1294.185913,40.642658 1294.689941,37.314785 1299.243164,35.621273 
	C1313.436890,35.312389 1326.909668,35.317616 1340.382568,35.322842 
z"/>
<path fill="#00AF9E" opacity="1.000000" stroke="none" 
	d="
M1294.282227,62.149857 
	C1309.032837,61.738121 1324.033325,61.667690 1339.495605,61.503876 
	C1339.367920,61.912895 1338.776611,62.855690 1338.189087,62.853271 
	C1323.636475,62.793312 1309.084229,62.633343 1294.282227,62.149857 
z"/>
<path fill="#00AF9E" opacity="1.000000" stroke="none" 
	d="
M1340.055176,34.996006 
	C1326.909668,35.317616 1313.436890,35.312389 1299.506836,35.417885 
	C1299.974976,35.021873 1300.897949,34.079525 1301.826050,34.074337 
	C1314.011108,34.006203 1326.196899,34.064323 1338.382446,34.125103 
	C1338.831787,34.127350 1339.279419,34.479874 1340.055176,34.996006 
z"/>
<path fill="#F6F8F8" opacity="1.000000" stroke="none" 
	d="
M28.012192,62.032185 
	C27.459496,61.527939 26.906797,61.023689 26.274397,59.810616 
	C26.382353,52.413708 26.570013,45.725636 26.757675,39.037560 
	C27.973936,37.774040 29.190199,36.510521 31.180557,35.138863 
	C45.625977,35.218990 59.297298,35.407249 72.968620,35.595509 
	C83.078926,39.632042 85.284882,50.822502 76.974274,58.909828 
	C76.191956,59.420975 75.949936,59.678684 75.707916,59.936394 
	C75.707916,59.936394 75.309387,59.911915 74.868378,60.032898 
	C74.187805,60.414093 73.948235,60.674301 73.708664,60.934517 
	C73.310959,60.947865 72.913254,60.961212 71.952621,61.081299 
	C71.114906,61.433464 70.840103,61.678886 70.565300,61.924309 
	C70.565300,61.924309 70.293892,61.784325 69.695534,61.794640 
	C55.402180,61.880695 41.707188,61.956440 28.012192,62.032185 
z"/>
<path fill="#00AF9E" opacity="1.000000" stroke="none" 
	d="
M72.775322,35.197510 
	C59.297298,35.407249 45.625977,35.218990 31.489620,34.984272 
	C31.428360,34.669968 31.831879,34.168564 32.235939,34.168129 
	C45.422680,34.153908 58.609493,34.184475 71.796165,34.238953 
	C72.058884,34.240040 72.320107,34.604549 72.775322,35.197510 
z"/>
<path fill="#02AD9C" opacity="1.000000" stroke="none" 
	d="
M28.306870,62.326443 
	C41.707188,61.956440 55.402180,61.880695 69.564346,61.872757 
	C69.482567,62.270824 68.932556,62.890930 68.384850,62.888905 
	C55.123596,62.839771 41.862595,62.724251 28.306870,62.326443 
z"/>
<path fill="#02AD9C" opacity="1.000000" stroke="none" 
	d="
M26.382551,39.149429 
	C26.570013,45.725636 26.382353,52.413708 26.126839,59.566654 
	C26.041800,53.108116 26.024614,46.184708 26.382551,39.149429 
z"/>
<path fill="#02AD9C" opacity="1.000000" stroke="none" 
	d="
M75.960831,59.864677 
	C75.949936,59.678684 76.191956,59.420975 76.700592,59.129368 
	C76.716057,59.327965 76.464905,59.560463 75.960831,59.864677 
z"/>
<path fill="#02AD9C" opacity="1.000000" stroke="none" 
	d="
M70.832794,61.868378 
	C70.840103,61.678886 71.114906,61.433464 71.669296,61.178909 
	C71.666023,61.383999 71.383156,61.598221 70.832794,61.868378 
z"/>
<path fill="#02AD9C" opacity="1.000000" stroke="none" 
	d="
M73.960861,60.867432 
	C73.948235,60.674301 74.187805,60.414093 74.696152,60.133854 
	C74.714302,60.342667 74.463684,60.571507 73.960861,60.867432 
z"/>
<path fill="#F1F1F1" opacity="1.000000" stroke="none" 
	d="
M752.308350,44.326157 
	C753.706238,41.661552 754.918945,39.319756 756.570557,36.130226 
	C763.300659,48.804424 769.669128,60.797752 776.329285,73.340225 
	C763.092590,73.340225 750.497864,73.340225 737.119995,73.340225 
	C742.255005,63.520378 747.189087,54.084675 752.308350,44.326157 
z"/>
<path fill="#F4F7F7" opacity="1.000000" stroke="none" 
	d="
M277.021759,74.056854 
	C276.949799,73.227531 276.515656,72.185242 276.859528,71.600449 
	C283.301605,60.645157 289.836060,49.744160 297.043518,37.672081 
	C303.362549,50.085289 309.247406,61.645638 314.594910,73.553337 
	C301.712250,73.952744 289.367004,74.004799 277.021759,74.056854 
z"/>
<path fill="#02AD9C" opacity="1.000000" stroke="none" 
	d="
M277.319397,74.346138 
	C289.367004,74.004799 301.712250,73.952744 314.525146,73.925858 
	C314.445862,74.279465 313.897888,74.896019 313.352234,74.893967 
	C301.440338,74.849236 289.528748,74.735725 277.319397,74.346138 
z"/>
<path fill="#F1F5F5" opacity="1.000000" stroke="none" 
	d="
M1428.014526,73.905373 
	C1428.833374,71.645561 1429.402100,69.253632 1430.513794,67.148537 
	C1435.661377,57.402348 1440.959839,47.735809 1446.666992,37.185192 
	C1451.116089,45.126923 1455.204468,52.246742 1459.111694,59.464653 
	C1461.535034,63.941338 1463.683472,68.566818 1465.419434,73.461716 
	C1452.593750,73.833725 1440.304199,73.869553 1428.014526,73.905373 
z"/>
<path fill="#02AD9C" opacity="1.000000" stroke="none" 
	d="
M1428.284424,74.227730 
	C1440.304199,73.869553 1452.593750,73.833725 1465.337158,73.821823 
	C1465.726440,74.218102 1465.659546,74.917076 1465.597778,74.916618 
	C1453.249634,74.826851 1440.901978,74.687653 1428.284424,74.227730 
z"/>
</svg>