<svg width="81" height="81" viewBox="0 0 81 81" fill="none" xmlns="http://www.w3.org/2000/svg">
<path d="M12.9668 22.0909H22.0909C24.1243 22.0909 25.7727 23.7393 25.7727 25.7727C25.7727 27.8061 24.1243 29.4545 22.0909 29.4545H7.36362C3.2968 29.4545 0 26.1577 0 22.0909V7.36362C0 5.33023 1.64842 3.68181 3.68181 3.68181C5.7152 3.68181 7.36362 5.33023 7.36362 7.36362V17.2139C12.0378 10.5624 18.6323 5.43715 26.3195 2.56368C35.5785 -0.897294 45.7833 -0.852642 55.0118 2.68923C64.2403 6.23106 71.8546 13.0256 76.4204 21.7925C80.9862 30.5595 82.1884 40.6936 79.8 50.2855C77.4116 59.8773 71.598 68.2645 63.4542 73.8667C55.3104 79.469 45.3989 81.8997 35.5873 80.7009C25.7757 79.5018 16.7413 74.7559 10.1862 67.3573C4.44829 60.881 0.957013 52.7637 0.170284 44.2105C-0.0159902 42.1858 1.66477 40.5323 3.6982 40.5309C5.73159 40.529 7.37655 42.1811 7.6039 44.202C8.36279 50.9467 11.1821 57.328 15.7223 62.4528C21.0802 68.5001 28.4647 72.3793 36.4845 73.359C44.5043 74.3391 52.6057 72.3524 59.2621 67.773C65.9188 63.1939 70.6705 56.3384 72.6226 48.4983C74.5747 40.6583 73.5924 32.3749 69.8605 25.209C66.1283 18.0431 59.9046 12.4894 52.3616 9.59443C44.8187 6.69942 36.4772 6.6629 28.9092 9.49182C22.4962 11.889 17.0136 16.2034 13.1806 21.8048C13.113 21.9036 13.0416 21.999 12.9668 22.0909Z" fill="#3E4451"/>
<path d="M40.4044 52.9126C40.1384 52.3283 39.5877 51.9019 38.9212 51.8261C38.3567 51.7617 37.8041 51.6408 37.2786 51.4664C37.043 51.3872 36.8219 51.3006 36.6172 51.208L36.9573 50.2808C37.1975 50.388 37.4449 50.4861 37.6982 50.5747L37.7087 50.5785L37.7195 50.582C38.5324 50.8506 39.3325 50.9869 40.0968 50.9869C40.8644 50.9869 41.4207 50.884 41.8482 50.6634L41.8737 50.6502L41.8987 50.6357C42.5461 50.2642 42.9177 49.6256 42.9177 48.8833C42.9177 48.0596 42.4733 47.3758 41.6983 47.0064C41.3084 46.8168 40.7547 46.6357 39.9571 46.4374C39.139 46.2306 38.4518 46.0111 37.9188 45.7862C37.5292 45.61 37.1913 45.3287 36.8866 44.9265C36.6244 44.5676 36.4917 44.0278 36.4917 43.3215C36.4917 42.4694 36.7316 41.766 37.2254 41.1712C37.6649 40.65 38.289 40.2959 39.1267 40.0974C39.7481 39.9502 40.2327 39.5066 40.4506 38.9338C40.697 39.5144 41.2211 39.9461 41.8734 40.0501C42.4183 40.1369 42.9185 40.2752 43.3682 40.4625L43.0553 41.3711C42.206 41.0302 41.3702 40.858 40.5618 40.858C37.8772 40.858 37.7412 42.7101 37.7412 43.0814C37.7412 43.8863 38.1759 44.5611 38.9338 44.9332L38.955 44.9437L38.9765 44.9534C39.3593 45.1242 39.9026 45.2889 40.6865 45.4716C41.497 45.6548 42.173 45.8646 42.7041 46.0973L42.7151 46.1021L42.7261 46.1067C43.1205 46.2709 43.4588 46.5449 43.7602 46.9446L43.765 46.9508L43.7699 46.9573C44.0334 47.2979 44.1672 47.8248 44.1672 48.5233C44.1672 49.3295 43.9338 50.0119 43.4534 50.6097C43.0367 51.1282 42.4551 51.4871 41.6746 51.7069C41.072 51.8766 40.6046 52.3374 40.4044 52.9126Z" fill="black"/>
<path d="M41.0838 55.3254H39.7903C39.5009 55.3254 39.2664 55.0849 39.2664 54.7881V53.7094C39.2664 53.4257 39.0512 53.1925 38.7761 53.1611C38.1211 53.0867 37.4876 52.9478 36.8753 52.7447C36.2805 52.5442 35.7652 52.3067 35.3294 52.0314C35.1291 51.9048 35.0563 51.648 35.1391 51.4223L36.0264 49.0028C36.1459 48.6772 36.5314 48.5525 36.8283 48.721C37.2291 48.948 37.6601 49.1422 38.1205 49.3034C38.807 49.5302 39.4657 49.6436 40.0965 49.6436C40.6389 49.6436 41.0266 49.5836 41.259 49.4636C41.4914 49.33 41.6077 49.1366 41.6077 48.8833C41.6077 48.5899 41.4527 48.3699 41.1427 48.2232C40.8439 48.0765 40.3456 47.9164 39.6484 47.7431C38.7516 47.5163 38.0045 47.2762 37.4067 47.0228C36.809 46.756 36.2886 46.3291 35.8458 45.7424C35.403 45.1422 35.1816 44.3352 35.1816 43.3215C35.1816 42.1478 35.5303 41.1408 36.2276 40.3005C36.8563 39.5552 37.724 39.0512 38.8314 38.7888C39.0807 38.7296 39.2664 38.5077 39.2664 38.2455V37.0567C39.2664 36.7599 39.5009 36.5194 39.7903 36.5194H41.0838C41.3732 36.5194 41.6077 36.7599 41.6077 37.0567V38.1776C41.6077 38.4521 41.8097 38.6808 42.0741 38.7229C43.0442 38.8774 43.8967 39.17 44.6312 39.6006C44.8397 39.7229 44.9224 39.9829 44.8423 40.2151L44.0119 42.6246C43.902 42.9441 43.5353 43.0792 43.2403 42.9266C42.3049 42.443 41.4121 42.2012 40.5616 42.2012C39.5541 42.2012 39.0504 42.4946 39.0504 43.0813C39.0504 43.3616 39.2 43.5749 39.4988 43.7218C39.7978 43.8551 40.2902 44.0018 40.9766 44.1619C41.8621 44.362 42.6095 44.5952 43.2183 44.862C43.8271 45.1153 44.3528 45.5355 44.7959 46.1225C45.2496 46.7093 45.4766 47.5096 45.4766 48.5233C45.4766 49.6436 45.1389 50.6239 44.4635 51.4642C43.8754 52.1966 43.0611 52.7092 42.0212 53.0023C41.7821 53.0697 41.6077 53.2868 41.6077 53.541V54.7881C41.6077 55.0849 41.3732 55.3254 41.0838 55.3254Z" fill="#8FEDC2"/>
<path fill-rule="evenodd" clip-rule="evenodd" d="M34.6735 20.4H46.0155C48.9205 20.4 47.3252 24.8705 46.149 27.5973L44.8106 30.7245L44.6298 31.1463C45.8975 31.0832 47.1514 31.4433 48.2026 32.1726C52.1355 35.8634 55.3274 40.307 57.5986 45.2535C58.4836 47.0825 58.8347 49.135 58.6096 51.1639C58.3393 56.3353 54.2941 60.4562 49.2504 60.6985H31.4385C26.3934 60.4635 22.3423 56.3468 22.0663 51.1746C21.8411 49.1458 22.1922 47.0932 23.0774 45.2642C25.3513 40.3129 28.5476 35.8652 32.4863 32.1726C33.5377 31.4433 34.7913 31.0832 36.0591 31.1463L35.8495 30.66L34.5399 27.5973C33.369 24.8705 31.7659 20.4 34.6735 20.4Z" stroke="#3E4451" stroke-width="2" stroke-linecap="round" stroke-linejoin="round"/>
<path d="M44.6298 33.1611C45.7425 33.1611 46.6447 32.259 46.6447 31.1462C46.6447 30.0334 45.7425 29.1313 44.6298 29.1313V33.1611ZM36.0591 29.1313C34.9463 29.1313 34.0442 30.0334 34.0442 31.1462C34.0442 32.259 34.9463 33.1611 36.0591 33.1611V29.1313ZM51.8279 30.2056C52.7921 29.6501 53.1236 28.4181 52.568 27.4539C52.0124 26.4896 50.7807 26.1582 49.8164 26.7137L51.8279 30.2056ZM44.8106 30.7244L45.1993 32.7015L45.2052 32.7003L44.8106 30.7244ZM35.8495 30.6599L36.2667 28.6886L36.2485 28.6849L35.8495 30.6599ZM30.8415 26.6961C29.8675 26.1578 28.6416 26.511 28.1033 27.485C27.5651 28.459 27.9183 29.6849 28.8922 30.2232L30.8415 26.6961ZM44.6298 29.1313H36.0591V33.1611H44.6298V29.1313ZM49.8164 26.7137C48.132 27.684 46.3089 28.3705 44.4159 28.7485L45.2052 32.7003C47.5299 32.2361 49.7659 31.3934 51.8279 30.2056L49.8164 26.7137ZM44.4218 28.7473C41.7261 29.2775 38.9552 29.2574 36.2667 28.6886L35.4325 32.6312C38.6519 33.3124 41.9709 33.3363 45.1993 32.7015L44.4218 28.7473ZM36.2485 28.6849C34.3605 28.3037 32.5379 27.6337 30.8415 26.6961L28.8922 30.2232C30.947 31.3587 33.1578 32.172 35.4508 32.635L36.2485 28.6849Z" fill="#3E4451"/>
</svg>
