<?xml version="1.0" encoding="UTF-8" standalone="no"?>
<svg
   width="81"
   height="81"
   viewBox="0 0 81 81"
   fill="none"
   version="1.1"
   id="svg5"
   sodipodi:docname="LogoCash.svg"
   inkscape:version="1.3 (1:1.3+202307231459+0e150ed6c4)"
   xmlns:inkscape="http://www.inkscape.org/namespaces/inkscape"
   xmlns:sodipodi="http://sodipodi.sourceforge.net/DTD/sodipodi-0.dtd"
   xmlns="http://www.w3.org/2000/svg"
   xmlns:svg="http://www.w3.org/2000/svg">
  <defs
     id="defs5" />
  <sodipodi:namedview
     id="namedview5"
     pagecolor="#ffffff"
     bordercolor="#000000"
     borderopacity="0.25"
     inkscape:showpageshadow="2"
     inkscape:pageopacity="0.0"
     inkscape:pagecheckerboard="0"
     inkscape:deskcolor="#d1d1d1"
     inkscape:zoom="7.1234461"
     inkscape:cx="25.900386"
     inkscape:cy="44.22017"
     inkscape:window-width="1920"
     inkscape:window-height="1016"
     inkscape:window-x="0"
     inkscape:window-y="0"
     inkscape:window-maximized="1"
     inkscape:current-layer="svg5" />
  <path
     d="M 40.45974,63.205182 C 39.972293,62.134448 38.963131,61.353067 37.741765,61.214163 36.707314,61.096149 35.69467,60.874599 34.731688,60.55501 34.299949,60.409875 33.894782,60.25118 33.519667,60.08149 l 0.623236,-1.699101 c 0.440168,0.196445 0.893531,0.376214 1.357705,0.538574 l 0.01924,0.007 0.01979,0.0064 c 1.489646,0.492212 2.955835,0.741982 4.35642,0.741982 1.406633,0 2.426057,-0.188565 3.209454,-0.592816 l 0.04673,-0.02419 0.04581,-0.02657 c 1.186365,-0.680777 1.867325,-1.851016 1.867325,-3.211287 0,-1.509436 -0.814366,-2.762505 -2.23456,-3.439433 -0.714494,-0.347443 -1.729154,-0.67931 -3.190762,-1.042697 -1.499174,-0.378962 -2.758473,-0.781198 -3.7352,-1.193329 -0.713945,-0.322887 -1.333149,-0.838372 -1.891514,-1.575406 -0.480484,-0.657687 -0.723657,-1.646875 -0.723657,-2.941175 0,-1.56148 0.439618,-2.850465 1.34451,-3.940441 0.805387,-0.955103 1.949055,-1.603994 3.484147,-1.967747 1.13872,-0.269745 2.026753,-1.082645 2.426057,-2.132305 0.45153,1.063954 1.411947,1.855047 2.607291,2.045628 0.998534,0.159062 1.915154,0.412497 2.739233,0.755726 l -0.573392,1.665016 c -1.556349,-0.624701 -3.087958,-0.940259 -4.569358,-0.940259 -4.919549,0 -5.16877,3.393987 -5.16877,4.074397 0,1.474985 0.796591,2.711561 2.185448,3.393437 l 0.03885,0.01924 0.0394,0.01778 c 0.701484,0.312992 1.697086,0.614806 3.133588,0.949605 1.485248,0.335716 2.724023,0.720176 3.697267,1.1466 l 0.02016,0.0088 0.02016,0.0084 c 0.722741,0.300898 1.342678,0.803005 1.894996,1.535458 l 0.0088,0.01136 0.009,0.01191 c 0.482866,0.624152 0.728055,1.5897 0.728055,2.869707 0,1.477367 -0.427707,2.72787 -1.308044,3.823343 -0.763606,0.950156 -1.829392,1.607843 -3.259664,2.010628 -1.104269,0.310976 -1.960783,1.155396 -2.327651,2.209454 z"
     fill="#000000"
     id="path2"
     style="stroke-width:1.83251" />
  <path
     d="m 41.704745,67.626656 h -2.370348 c -0.530328,0 -0.960051,-0.440718 -0.960051,-0.984606 v -1.976726 c 0,-0.519882 -0.394355,-0.947223 -0.898478,-1.004764 -1.200293,-0.136338 -2.361186,-0.390874 -3.483231,-0.763056 -1.089975,-0.367418 -2.034266,-0.802638 -2.832873,-1.307128 -0.367051,-0.231995 -0.500458,-0.702583 -0.348726,-1.11618 l 1.625984,-4.433752 c 0.218984,-0.596664 0.925416,-0.825178 1.469488,-0.516401 0.734469,0.41598 1.524279,0.771853 2.367966,1.067253 1.258016,0.415613 2.465089,0.623419 3.621035,0.623419 0.993952,0 1.704415,-0.109951 2.13029,-0.329851 0.425874,-0.244823 0.638995,-0.59923 0.638995,-1.063405 0,-0.537657 -0.284039,-0.940809 -0.852116,-1.209638 -0.547553,-0.268829 -1.460692,-0.562213 -2.738316,-0.879787 -1.643393,-0.415612 -3.012459,-0.855597 -4.107932,-1.319955 -1.09529,-0.488913 -2.048927,-1.27121 -2.860361,-2.346342 -0.811434,-1.099871 -1.217152,-2.578705 -1.217152,-4.436318 0,-2.150814 0.638996,-3.996149 1.916803,-5.536005 1.152098,-1.365768 2.742165,-2.289352 4.771483,-2.770202 0.456845,-0.108484 0.797141,-0.515118 0.797141,-0.995601 v -2.178485 c 0,-0.543888 0.429723,-0.984607 0.960051,-0.984607 h 2.370348 c 0.530328,0 0.960051,0.440719 0.960051,0.984607 v 2.054057 c 0,0.503024 0.370167,0.922118 0.854682,0.999267 1.777715,0.283122 3.339928,0.819314 4.685905,1.608392 0.382077,0.224115 0.533626,0.700567 0.386842,1.126076 l -1.521714,4.415427 c -0.201393,0.585486 -0.873373,0.833057 -1.413963,0.553417 -1.714128,-0.886201 -3.35019,-1.329301 -4.908738,-1.329301 -1.846251,0 -2.769285,0.537658 -2.769285,1.61279 0,0.513652 0.274143,0.904525 0.821696,1.173721 0.54792,0.244273 1.450246,0.513102 2.70808,0.806486 1.622685,0.366685 2.992301,0.794026 4.107932,1.282939 1.11563,0.464174 2.07898,1.234194 2.890964,2.309876 0.831408,1.075315 1.247388,2.541871 1.247388,4.399484 0,2.052958 -0.618838,3.849365 -1.856514,5.389221 -1.077698,1.342129 -2.569908,2.281472 -4.475533,2.81858 -0.438153,0.123511 -0.757742,0.521348 -0.757742,0.987172 v 2.28532 c 0,0.543888 -0.429723,0.984606 -0.960051,0.984606 z"
     fill="#24b4a5"
     id="path3"
     style="stroke-width:1.83251" />
  <path
     fill-rule="evenodd"
     clip-rule="evenodd"
     d="m 29.957822,3.6255974 h 20.784301 c 5.323434,0 2.400035,8.1922246 0.24464,13.1891066 l -2.452628,5.730618 -0.331318,0.772951 c 2.32307,-0.115631 4.620851,0.544255 6.547183,1.880703 7.207069,6.763419 13.05625,14.906349 17.218241,23.970848 1.621769,3.351656 2.265163,7.112878 1.852665,10.830852 -0.495327,9.47663 -7.908186,17.02821 -17.150804,17.472227 H 24.02966 C 14.784477,77.042263 7.3608053,69.498379 6.8550333,60.020284 6.4423526,56.302493 7.085746,52.541088 8.7078816,49.189431 12.874821,40.116137 18.732064,31.965693 25.949762,25.198976 c 1.926698,-1.336448 4.22393,-1.996334 6.547183,-1.880703 L 32.112851,22.427125 29.712999,16.814704 C 27.567316,11.817822 24.629623,3.6255974 29.957822,3.6255974 Z"
     stroke="#242d3c"
     stroke-width="3.66501"
     stroke-linecap="round"
     stroke-linejoin="round"
     id="path4" />
  <path
     d="m 48.202817,27.010409 c 2.039031,0 3.69232,-1.653105 3.69232,-3.692319 0,-2.039214 -1.653289,-3.692319 -3.69232,-3.692319 z M 32.496945,19.625771 c -2.039215,0 -3.69232,1.653105 -3.69232,3.692319 0,2.039214 1.653105,3.692319 3.69232,3.692319 z m 28.896445,1.968662 c 1.766903,-1.017958 2.37438,-3.275607 1.356239,-5.042511 -1.018142,-1.767087 -3.275241,-2.37438 -5.042328,-1.356422 z m -12.859255,0.950705 0.712295,3.623051 0.01081,-0.0022 z m -16.421284,-0.118196 0.764522,-3.612423 -0.03335,-0.0068 z m -9.177198,-7.263694 c -1.784862,-0.986439 -4.031333,-0.339197 -5.017772,1.445665 -0.986255,1.784863 -0.339014,4.031334 1.445665,5.017773 z m 25.267164,4.462523 H 32.496945 v 7.384638 H 48.202817 Z M 57.707301,15.1955 c -3.086676,1.778082 -6.42752,3.036099 -9.896457,3.728787 l 1.446398,7.241703 c 4.26003,-0.85065 8.357517,-2.394904 12.136148,-4.571557 z m -9.885645,3.726588 C 42.881765,19.893683 37.80407,19.85685 32.877373,18.814519 l -1.528677,7.224845 c 5.899574,1.248304 11.981667,1.292101 17.897734,0.128825 z M 32.844022,18.807739 c -3.459775,-0.698552 -6.799703,-1.926332 -9.908369,-3.644491 l -3.572107,6.463438 c 3.765437,2.080812 7.816745,3.57119 12.018684,4.419641 z"
     fill="#242d3c"
     id="path5"
     style="stroke-width:1.83251" />
</svg>
